<svg width="755" height="546" viewBox="0 0 755 546" fill="none" xmlns="http://www.w3.org/2000/svg">
<g clip-path="url(#clip0_89_6093)">
<g style="mix-blend-mode:color-dodge">
<path d="M-401.314 669.452C-243.571 637.073 -88.8407 656.235 66.5754 691.294C134.943 706.715 203.497 715.152 272.467 698.09C308.271 689.237 342.102 674.793 374.768 657.835C423.665 632.46 466.929 590.064 515.992 567.391C647.864 506.436 741.957 660.142 859.262 685.662C912.646 697.279 948.16 671.759 997.389 659.227C1055.91 644.347 1106.92 668.351 1157.21 696.76" stroke="#4D4D4D" stroke-miterlimit="10"/>
<path d="M-401.314 640.918C-246.688 604.196 -104.862 634.85 44.9638 675.645C114.536 694.578 184.067 706.029 254.908 686.39C292.395 675.998 327.285 658.874 360.783 639.359C413.274 608.789 458.555 560.054 511.399 532.331C650.191 459.531 732.502 638.029 852.446 666.459C908.823 679.822 941.843 649.189 992.048 633.374C1052.81 614.234 1106.82 646.03 1157.19 677.516" stroke="#4D4D4D" stroke-miterlimit="10"/>
<path d="M-401.314 612.072C-253.649 571.381 -128.24 611.574 11.6946 657.585C81.1008 680.404 150.32 697.487 222.656 678.783C332.709 650.332 404.443 563.754 496.936 505.418C647.136 410.713 714.07 621.611 845.11 648.462C901.841 660.1 933.925 623.918 984.068 606.44C1047.57 584.307 1106.19 624.168 1157.21 658.23" stroke="#4D4D4D" stroke-miterlimit="10"/>
<path d="M-401.314 583.372C-258.034 537.09 -148.023 589.108 -16.442 640.669C54.6059 668.496 126.464 691.066 202.167 668.06C314.402 633.956 387.548 541.059 480.333 476.448C638.076 366.614 689.861 601.307 825.348 628.906C883.014 640.648 918.61 600.497 967.984 580.899C1037.72 553.217 1101.75 600.33 1157.21 639.048" stroke="#4D4D4D" stroke-miterlimit="10"/>
<path d="M-401.314 555.191C-337.124 530.731 -274.471 525.099 -208.078 544.842C-146.776 563.068 -94.1396 599.873 -36.2872 625.913C32.0385 656.671 102.234 683.646 177.002 659.144C295.762 620.219 367.246 514.521 464.165 444.401C621.098 330.847 666.753 572.898 795.591 605.547C860.82 622.069 898.62 574.166 954.082 552.261C1029.04 522.646 1099.07 577.927 1157.21 619.803" stroke="#4D4D4D" stroke-miterlimit="10"/>
<path d="M-401.314 527.987C-343.545 501.823 -285.984 493.676 -224.973 514.126C-164.876 534.264 -116.063 576.659 -60.7041 606.004C3.69413 640.149 69.9626 674.419 144.065 652.556C268.311 615.938 346.299 497.23 442.72 420.419C607.134 289.428 634.419 552.843 769.117 583.164C838.232 598.73 881.268 543.179 940.617 521.524C1020.45 492.408 1097.03 556.023 1157.19 600.538" stroke="#4D4D4D" stroke-miterlimit="10"/>
<path d="M-401.314 502.155C-267.801 430.456 -187.61 515.269 -78.8661 583.809C-17.107 622.734 49.3901 667.769 125.072 642.705C247.634 602.118 328.262 480.084 421.171 398.93C481.143 346.559 538.559 334.401 589.928 400.655C634.481 458.097 663.095 540.831 742.372 557.477C811.405 571.963 860.155 515.103 919.379 491.93C1006.53 457.806 1092.81 532.414 1157.21 581.315" stroke="#4D4D4D" stroke-miterlimit="10"/>
<path d="M-401.314 478.131C-271.998 396.852 -191.412 481.248 -89.4225 557.851C-35.0196 598.709 26.5733 655.299 100.073 636.117C144.813 624.438 184.483 591.249 218.646 561.946C284.312 505.647 338.818 439.227 401.159 379.748C460.924 322.721 519.836 300.277 571.08 375.508C609.274 431.579 638.575 518.199 715.358 530.44C788.359 542.078 841.785 479.44 905.81 457.785C998.157 426.529 1091.25 510.53 1157.21 562.029" stroke="#4D4D4D" stroke-miterlimit="10"/>
<path d="M-401.314 456.351C-350.901 420.086 -295.272 397.33 -233.846 419.421C-179.152 439.102 -136.635 484.823 -94.5968 522.917C-47.2177 565.853 12.6297 642.082 85.3608 627.098C126.298 618.66 162.31 587.321 192.899 560.636C260.414 501.719 319.597 433.47 380.296 367.819C437.109 306.345 500.074 262.12 553.064 347.681C588.744 405.268 616.444 496.357 697.362 499.557C769.179 502.404 823.145 445.046 887.876 423.889C987.165 391.448 1087.89 486.797 1157.23 542.805" stroke="#4D4D4D" stroke-miterlimit="10"/>
<path d="M-401.314 436.359C-349.571 396.041 -291.927 369.274 -226.573 392.508C-171.422 412.106 -125.747 456.788 -84.9755 496.96C-42.5837 538.753 14.3129 620.842 83.7192 606.835C122.558 599 156.72 567.598 185.356 542.119C250.835 483.825 309.31 417.364 368.472 352.876C422.646 293.834 486.276 240.008 540.014 325.174C575.174 380.891 601.877 469.818 681.278 470.919C752.472 471.896 811.841 420.211 878.317 402.504C981.783 374.926 1082.9 465.329 1157.21 523.083" stroke="#4D4D4D" stroke-miterlimit="10"/>
<path d="M-401.314 414.08C-344.231 369.17 -283.324 345.021 -213.543 376.194C-155.836 401.985 -105.299 450.782 -60.6418 493.988C-20.5773 532.767 29.0669 598.211 92.2391 577.823C130.787 565.375 164.305 532.123 193.065 505.397C250.71 451.841 304.282 393.838 358.664 337.02C410.49 282.84 473.371 230.137 529.083 305.68C568.711 359.423 593.939 445.378 673.049 449.306C743.515 452.797 811.654 406.308 879.585 393.838C982.323 374.968 1077.87 445.794 1157.23 500.368" stroke="#4D4D4D" stroke-miterlimit="10"/>
<path d="M-401.314 389.328C-339.929 342.485 -277.381 321.89 -205.668 358.882C-150.724 387.209 -100.02 432.826 -54.8233 474.452C-12.7015 513.253 39.0207 580.109 102.671 550.515C135.899 535.074 163.246 505.667 189.346 480.791C244.247 428.42 296.177 372.89 349.791 319.23C405.253 263.721 468.093 220.681 525.634 294.478C565.241 345.291 593.772 425.282 668.872 428.607C737.967 431.683 806.604 398.577 874.037 387.562C978.125 370.562 1070.54 423.64 1157.23 474.785" stroke="#4D4D4D" stroke-miterlimit="10"/>
<path d="M-401.314 362.561C-330.516 311.478 -262.98 299.923 -187.589 347.452C-133.414 381.597 -83.3339 427.859 -34.8534 469.569C5.62668 504.4 51.1564 559.078 107.804 527.406C138.143 510.447 163.391 480.209 187.558 455.748C239.011 403.647 289.112 350.279 342.06 299.674C396.92 247.24 459.718 209.396 518.111 275.65C561.708 325.111 591.902 404.001 666.815 411.15C732.834 417.447 804.776 391.635 869.714 381.577C973.491 365.512 1064.8 402.193 1157.19 446.978" stroke="#4D4D4D" stroke-miterlimit="10"/>
<path d="M-401.314 334.276C-324.614 282.674 -254.086 277.146 -177.219 331.138C-119.222 371.871 -67.1045 423.349 -11.9535 467.989C25.9706 498.664 67.9261 540.727 115.326 505.48C146.663 482.183 172.243 447.082 198.26 418.486C242.252 370.167 287.346 322.493 335.743 278.559C395.05 224.712 459.365 199.275 519.088 264.178C562.81 311.686 596.307 385.837 668.145 393.88C736.138 401.486 809.659 383.634 877.008 374.386C976.047 360.794 1064.2 382.928 1157.21 417.364" stroke="#4D4D4D" stroke-miterlimit="10"/>
<path d="M-401.314 304.911C-313.871 250.233 -239.54 256.052 -159.265 320.144C-98.3581 368.775 -46.4488 425.365 17.0351 471.252C60.5906 502.716 91.9898 520.485 131.743 476.635C199.299 402.11 254.014 317.173 333.166 252.914C391.268 205.759 455.188 188.177 513.082 243.063C561.999 289.428 594.915 360.607 665.527 377.316C730.715 392.716 812.527 377.524 878.068 368.588C974.8 355.391 1062.1 363.143 1157.23 386.585" stroke="#4D4D4D" stroke-miterlimit="10"/>
<path d="M-401.314 274.964C-303.398 217.833 -223.663 236.392 -141.103 309.525C-81.9624 361.917 -32.7754 422.58 34.3451 465.62C83.6153 497.23 109.549 502.82 143.255 452.486C196.66 372.744 250.419 291.236 328.221 232.423C391.123 184.852 454.856 174.17 516.324 229.014C567.506 274.694 603.934 348.18 676.312 364.348C740.502 378.688 815.415 371.871 880.125 363.06C974.073 350.258 1062.33 344.48 1157.23 355.059" stroke="#4D4D4D" stroke-miterlimit="10"/>
<path d="M-401.314 244.913C-294.587 185.995 -211.091 215.028 -126.495 295.642C-66.6265 352.689 -17.2732 422.372 56.4346 462.814C111.149 492.845 130.35 477.237 156.45 425.76C197.969 343.899 250.481 261.165 327.389 207.837C392.494 162.678 458.347 161.285 519.503 213.178C572.847 258.463 611.706 330.037 683.169 350.112C836.445 393.173 1003.25 328.811 1157.23 323.47" stroke="#4D4D4D" stroke-miterlimit="10"/>
<path d="M-401.314 215.215C-348.221 186.93 -298.306 170.138 -238.895 190.734C-189.75 207.775 -149.498 243.541 -113.445 279.972C-53.9713 340.116 -3.12182 421.042 76.1136 456.788C135.545 483.597 149.614 447.477 169.667 397.08C202.354 314.866 251.707 230.635 328.823 182.504C496.894 77.5743 557.552 289.886 691.274 335.918C847.438 389.682 1004.52 321.849 1157.23 292.275" stroke="#4D4D4D" stroke-miterlimit="10"/>
<path d="M-401.314 186.348C-345.935 157.046 -294.898 140.711 -234.407 162.968C-183.661 181.631 -142.641 219.766 -105.881 258.4C-48.0697 319.147 11.7153 424.305 97.9537 448.496C158.321 465.433 167.838 408.947 183.132 363.475C209.897 283.88 256.03 196.116 333.208 154.011C493.424 66.6013 574.114 263.139 695.076 318.69C853.776 391.573 1007.45 316.84 1157.21 262.017" stroke="#4D4D4D" stroke-miterlimit="10"/>
<path d="M-401.314 158.812C-345.395 128.387 -295.023 111.865 -233.472 133.416C-182.435 151.289 -140.729 191.17 -104.447 230.033C-45.576 293.107 17.5338 412.916 109.071 430.789C171.287 442.947 180.015 380.787 193.606 334.11C216.942 254.036 258.96 165.4 339.608 128.158C500.053 54.0695 586.582 242.751 704.926 303.768C766.54 335.523 846.316 351.796 914.953 340.74C1001.96 326.732 1081.53 275.172 1157.23 233.337" stroke="#4D4D4D" stroke-miterlimit="10"/>
<path d="M-401.314 133.042C-341.758 98.6059 -284.197 78.7589 -218.261 108.519C-168.783 130.86 -129.529 171.926 -94.0565 211.786C-40.9005 271.514 26.0953 397.35 115.513 406.786C182.821 413.893 191.32 340.386 205.741 290.758C228.039 214.051 268.186 131.816 349.001 102.222C508.24 43.8863 600.318 218.81 715.213 287.163C773.273 321.703 849.163 345.353 917.073 336.895C1008.05 325.548 1086.79 259.71 1157.19 206.611" stroke="#4D4D4D" stroke-miterlimit="10"/>
<path d="M-401.314 109.537C-345.083 73.7088 -289.724 48.7702 -223.289 75.6C-170.05 97.1096 -127.658 142.768 -91.085 185.434C-38.8017 246.43 26.9473 371.664 119.835 373.867C186.062 375.425 198.323 300.859 213.95 251.064C238.117 174.129 276.332 99.4996 361.095 77.7406C523.41 36.0515 613.534 195.991 729.676 272.719C786.531 310.294 862.358 341.28 931.619 331.284C1022.2 318.191 1094.97 242.897 1157.21 182.504" stroke="#4D4D4D" stroke-miterlimit="10"/>
<path d="M-401.314 88.7758C-349.696 51.3471 -296.083 19.9867 -230.438 41.9743C-179.277 59.0988 -138.984 101.037 -104.551 140.815C-48.1528 205.946 8.5775 321.807 105.663 329.205C179.475 334.817 198.655 263.076 219.893 206.32C248.86 128.886 289.237 63.3176 377.948 51.3263C535.213 30.066 625.836 165.296 735.099 250.42C789.876 293.086 864.041 333.944 935.713 326.961C1030.78 317.692 1100.75 229.284 1157.21 161.514" stroke="#4D4D4D" stroke-miterlimit="10"/>
<path d="M-401.314 72.3995C-349.945 36.5501 -296.976 7.0394 -232.641 27.9879C-182.539 44.3019 -142.662 84.3908 -108.644 122.963C-53.8466 185.06 4.15129 304.267 98.4524 307.53C171.371 310.044 196.328 245.453 222.469 188.676C255.988 115.917 301.352 49.3104 387.382 37.6932C539.141 17.2019 633.941 143.537 741.645 224.338C794.489 263.97 869.028 304.288 936.897 302.957C1031.78 301.087 1102.06 210.83 1157.21 144.95" stroke="#4D4D4D" stroke-miterlimit="10"/>
<path d="M-401.314 61.1979C-350.756 26.5955 -298.556 -2.10476 -235.487 16.9733C-186.758 31.7079 -147.462 69.2406 -113.985 105.984C-60.0599 165.192 -2.31139 283.152 88.935 283.713C160.482 284.15 190.946 227.206 222.179 171.739C260.331 103.988 310.412 38.9817 393.388 27.593C539.66 7.53819 638.471 120.843 746.238 196.262C798.562 232.88 872.291 273.738 937.043 279.515C1031.45 287.932 1102.87 196.781 1157.19 133.271" stroke="#4D4D4D" stroke-miterlimit="10"/>
<path d="M-401.314 54.2566C-352.813 21.1089 -300.966 -7.54976 -240.392 7.82908C-188.752 20.9219 -147.732 59.9717 -112.572 97.7746C-59.1248 155.237 -5.53236 261.975 83.7607 258.005C151.318 255.013 185.751 203.722 221.036 153.242C264.363 91.2282 316.667 33.0795 396.006 21.8155C540.076 1.34504 641.006 99.2916 753.095 169.161C804.88 201.457 870.587 239.759 930.247 255.2C1026.96 280.222 1100.6 189.59 1157.21 125.581" stroke="#4D4D4D" stroke-miterlimit="10"/>
<path d="M-401.314 50.6821C-354.143 18.0332 -303.398 -11.249 -243.82 0.867085C-194.218 10.9672 -153.904 45.7151 -119.346 80.6085C-65.1511 135.307 -14.6965 233.545 71.812 229.7C137.436 226.791 176.898 183.605 217.046 137.074C265.152 81.3359 320.677 28.3828 396.962 17.285C534.943 -2.79058 640.674 75.5168 754.072 137.822C810.345 168.746 869.527 206.549 928.606 231.571C1023.72 271.867 1098.48 184.665 1157.19 121.051" stroke="#4D4D4D" stroke-miterlimit="10"/>
<path d="M-401.314 49.5806C-302.068 -20.788 -216.224 -20.4348 -126.1 63.0059C-70.7618 114.234 -23.7359 202.164 59.7387 199.171C123.223 196.885 167.36 161.888 212.1 120.801C264.82 72.3995 322.901 25.5771 396.151 14.6872C527.629 -4.86885 638.949 51.7627 753.365 105.485C816.35 135.058 867.304 172.154 925.967 208.128C1018.61 264.926 1094.22 183.834 1157.23 118.889" stroke="#4D4D4D" stroke-miterlimit="10"/>
<path d="M-401.314 50.0587C-308.946 -17.6083 -223.934 -30.7426 -132.459 44.5721C-75.6659 91.3321 -31.9234 167.935 48.164 166.356C181.511 163.737 263.635 33.1211 393.969 13.4196C518.818 -5.45066 636.102 28.0087 750.934 72.3372C821.13 99.4372 865.33 137.822 922.268 184.644C1011.58 258.089 1087.49 186.245 1157.21 118.141" stroke="#4D4D4D" stroke-miterlimit="10"/>
<path d="M-401.314 51.2224C-316.842 -13.161 -232.495 -40.4272 -140.23 23.3534C-83.1884 62.7773 -41.3576 128.657 32.3502 131.192C164.887 135.785 263.511 31.9573 390.707 12.1102C506.765 -5.99108 630.803 4.04673 742.767 37.6308C822.481 61.5511 863.189 105.048 919.379 163.114C940.367 184.811 963.974 207.401 995.498 210.809C1058.21 217.563 1116.88 155.404 1157.21 118.079" stroke="#4D4D4D" stroke-miterlimit="10"/>
<path d="M-401.314 52.1783C-322.723 -10.1268 -238.771 -49.7169 -144.449 2.44649C-86.0977 34.7213 -45.5137 89.5032 24.0796 93.5558C153.562 101.1 262.638 31.7079 387.195 12.3596C498.931 -4.99355 625.545 -19.458 737.136 4.48314C822.979 22.8962 861.589 74.2491 913.623 139.879C933.551 165.026 956.119 193.955 989.056 201.852C1052.68 217.106 1115.46 154.406 1157.19 117.85" stroke="#4D4D4D" stroke-miterlimit="10"/>
<path d="M-401.314 52.0121C-324.614 -11.1658 -239.373 -60.0664 -140.625 -17.9201C-86.7834 5.06508 -46.7189 47.1907 13.1907 53.0512C141.946 65.6661 259.022 31.4377 384.743 12.9831C450.991 3.25704 516.262 -6.38592 581.948 -19.6242C633.006 -29.9114 682.629 -35.2524 734.538 -27.8124C824.226 -14.969 862.109 49.1234 908.615 118.952C927.234 146.904 949.615 181.61 983.445 192.729C1048.28 214.051 1112.95 153.367 1157.21 116.52" stroke="#4D4D4D" stroke-miterlimit="10"/>
<path d="M-401.314 49.8508C-327.44 -12.953 -242.158 -71.1433 -141.186 -44.2303C-87.6562 -29.9529 -44.4539 3.25707 11.175 10.2815C138.081 26.2838 255.656 29.9207 382.457 12.2558C449.598 2.90378 512.542 -10.8748 576.587 -33.0703C625.899 -50.1533 673.215 -64.1605 726.081 -60.4197C820.215 -53.7694 858.451 21.9403 900.947 95.4678C919.047 126.787 940.908 167.083 975.985 182.317C1042.07 211.017 1110.16 150.707 1157.25 113.361" stroke="#4D4D4D" stroke-miterlimit="10"/>
<path d="M-401.314 44.8007C-328.479 -18.5851 -243.529 -83.3217 -141.353 -73.5125C-86.4925 -68.2546 -36.2872 -42.3184 18.178 -34.2964C142.673 -15.9457 252.185 25.9304 380.067 10.323C447.728 2.05167 508.531 -15.6132 569.501 -45.8306C615.425 -68.5871 659.189 -91.6138 711.805 -92.2788C814.085 -93.5258 852.716 -4.18298 893.903 74.6232C911.69 108.664 933.073 152.951 969.314 171.198C1036.56 205.073 1107.46 145.407 1157.21 107.438" stroke="#4D4D4D" stroke-miterlimit="10"/>
<path d="M-401.314 35.9682C-326.983 -29.475 -241.805 -98.4304 -138.63 -105.247C-83.0014 -108.925 -24.4424 -92.3828 29.6903 -81.1604C151.442 -55.9308 252.809 20.818 382.104 6.8523C448.58 -0.317563 507.285 -21.9519 563.017 -58.4454C607.986 -87.8939 649.193 -119.462 705.03 -122.725C809.534 -128.814 847.812 -25.0484 885.944 53.6954C904.064 91.0827 924.865 136.305 962.228 158.438C1029.33 198.174 1106.69 135.39 1157.21 97.9824" stroke="#4D4D4D" stroke-miterlimit="10"/>
<path d="M-401.314 22.4183C-274.118 -89.3069 -140.064 -175.449 33.0983 -133.594C156.367 -103.792 251.313 12.1103 385.055 1.17888C452.819 -4.36997 509.903 -31.5739 561.459 -74.6555C601.835 -108.385 637.806 -145.377 692.894 -151.342C797.96 -162.71 836.466 -56.4294 872.478 22.2105C892.136 65.1258 913.415 118.806 956.077 144.368C1024.86 185.58 1104.74 122.256 1157.19 84.1" stroke="#4D4D4D" stroke-miterlimit="10"/>
<path d="M-401.314 4.00523C-278.918 -100.571 -121.466 -216.245 49.7641 -168.279C169.958 -134.612 260.768 -6.40667 392.868 -13.1817C458.929 -16.5692 515.056 -48.2205 561.688 -93.0685C598.676 -128.627 631.738 -168.737 686.141 -174.763C786.925 -185.965 827.946 -81.0564 863.459 -6.46901C884.718 38.1504 906.994 92.7661 950.716 120.219C1020.72 164.174 1101.58 104.155 1157.19 65.4167" stroke="#4D4D4D" stroke-miterlimit="10"/>
<path d="M-401.314 -15.2392C-278.482 -115.368 -117.227 -225.929 51.3019 -184.406C175.173 -153.898 273.298 -26.6694 407.414 -35.3771C468.197 -39.3258 519.129 -68.8573 561.812 -110.505C595.871 -143.736 625.732 -181.601 675.46 -189.727C774.644 -205.937 823.644 -98.3888 862.129 -27.0642C884.24 13.8767 908.22 61.3226 948.347 87.7368C1018.52 133.936 1097.49 82.7906 1157.21 44.3435" stroke="#4D4D4D" stroke-miterlimit="10"/>
<path d="M-401.314 -34.4835C-276.155 -131.079 -107.044 -237.9 60.2374 -195.338C181.865 -164.393 285.974 -48.2621 417.223 -55.3904C473.184 -58.4246 522.184 -88.2471 561.313 -126.195C592.671 -156.6 620.579 -192.823 665.631 -202.362C763.257 -223.02 819.405 -114.641 861.922 -46.9736C887.481 -6.3028 914.205 38.4621 958.093 61.468C1027.54 97.8577 1096.61 57.6857 1157.21 21.7116" stroke="#4D4D4D" stroke-miterlimit="10"/>
<path d="M-401.314 -53.7278C-272.144 -147.31 -98.9191 -245.589 68.1963 -204.191C188.66 -174.348 297.196 -66.8206 426.428 -75.653C478.483 -79.2068 522.974 -105.372 560.171 -140.348C591.445 -169.755 619.54 -205.604 664.218 -213.855C757.043 -231.021 817.514 -129.25 862.815 -66.1971C888.811 -30.0153 916.366 6.89395 955.994 28.8192C1024.94 66.9338 1094.43 32.0404 1157.21 -2.20866" stroke="#4D4D4D" stroke-miterlimit="10"/>
<path d="M-401.314 -72.9722C-271.25 -160.569 -103.428 -245.132 59.6556 -214.395C185.875 -190.6 299.938 -85.109 432.496 -94.3986C482.764 -97.9316 525.571 -123.577 562.186 -156.538C592.131 -183.513 619.332 -214.603 660.83 -222.438C746.736 -238.669 810.698 -151.009 857.911 -93.7336C888.811 -56.2217 922.579 -15.0521 968.816 4.12988C1034.19 31.2507 1098.55 2.28026 1157.23 -27.1058" stroke="#4D4D4D" stroke-miterlimit="10"/>
</g>
</g>
<defs>
<clipPath id="clip0_89_6093">
<rect width="1560" height="1042" fill="white" transform="translate(-402 -248)"/>
</clipPath>
</defs>
</svg>
