<svg width="358" height="310" viewBox="0 0 358 310" fill="none" xmlns="http://www.w3.org/2000/svg">
<g clip-path="url(#clip0_146_11531)">
<g style="mix-blend-mode:color-dodge">
<path d="M-133.725 335.905C-69.1158 326.543 -2.68913 327.693 61.9697 336.372C87.4113 339.781 112.87 341.657 138.37 337.706C151.637 335.646 164.578 332.187 177.237 327.726C194.448 321.666 210.317 310.528 227.386 304.959C275.292 289.327 320.755 329.21 366.185 336.338C387.032 339.606 406.053 332.829 426.591 330.486C449.464 327.876 470.294 332.345 491.692 340.423" stroke="#4D4D4D" stroke-miterlimit="10"/>
<path d="M-133.725 325.2C-70.475 314.121 -5.85788 317.589 57.1666 328.802C84.5177 333.671 111.911 336.88 139.429 331.295C174.368 324.2 200.135 303.199 232.122 289.777C283.998 268.01 325.308 320.815 373.698 328.844C392.802 332.012 408.554 323.925 426.841 320.398C450.315 315.871 470.595 322.533 491.683 332.712" stroke="#4D4D4D" stroke-miterlimit="10"/>
<path d="M-133.725 314.037C-70.425 301.049 -8.33449 308.735 54.0312 322.799C81.4657 328.985 108.975 332.37 136.652 325.525C151.019 321.974 164.595 316.18 177.704 309.377C197.325 299.198 214.686 282.191 234.374 273.095C287.292 248.643 325.05 310.302 372.122 320.54C393.544 325.2 407.795 314.963 427.55 309.936C451.032 303.966 471.503 313.595 491.683 324.992" stroke="#4D4D4D" stroke-miterlimit="10"/>
<path d="M-133.725 302.591C-71.6758 287.86 -14.7637 300.157 45.3589 316.522C73.2771 324.117 101.179 328.71 129.605 320.832C144.649 316.663 158.649 309.794 172.092 301.966C193.155 289.702 211.325 270.152 232.531 259.031C288.226 229.827 321.255 301.432 369.387 312.837C392.01 318.197 405.26 305.909 425.407 299.565C449.789 291.886 471.462 304.642 491.675 317.272" stroke="#4D4D4D" stroke-miterlimit="10"/>
<path d="M-133.725 291.019C-74.4693 274.696 -24.1448 290.819 32.0085 309.277C59.86 318.431 87.6364 325.284 116.664 317.781C160.826 306.367 189.611 271.636 226.727 248.235C287 210.244 313.859 294.846 366.443 305.617C389.208 310.286 402.083 295.771 422.205 288.76C447.688 279.881 471.212 295.871 491.683 309.535" stroke="#4D4D4D" stroke-miterlimit="10"/>
<path d="M-133.725 279.506C-76.2288 260.94 -32.0833 281.807 20.7178 302.491C49.228 313.654 78.0635 322.708 108.442 313.479C153.479 299.798 182.832 262.532 220.064 236.613C283.364 192.553 304.144 286.701 358.513 297.772C381.653 302.482 395.938 286.376 415.75 278.514C443.735 267.409 469.427 286.309 491.683 301.841" stroke="#4D4D4D" stroke-miterlimit="10"/>
<path d="M-133.725 268.201C-107.966 258.389 -82.8247 256.13 -56.1824 264.05C-31.583 271.361 -10.4609 286.126 12.7543 296.572C40.1721 308.91 68.3405 319.731 98.3434 309.902C146 294.287 174.685 251.886 213.577 223.758C276.551 178.205 294.872 275.304 346.572 288.402C372.747 295.029 387.916 275.813 410.172 267.026C440.25 255.146 468.351 277.322 491.683 294.121" stroke="#4D4D4D" stroke-miterlimit="10"/>
<path d="M-133.725 257.289C-110.543 246.793 -87.4444 243.525 -62.9618 251.728C-38.8461 259.806 -19.2583 276.813 2.95622 288.585C28.7981 302.282 55.3904 316.03 85.1265 307.26C134.984 292.57 166.279 244.95 204.971 214.137C270.948 161.59 281.896 267.259 335.948 279.423C363.683 285.667 380.953 263.383 404.768 254.696C436.806 243.016 467.534 268.535 491.675 286.392" stroke="#4D4D4D" stroke-miterlimit="10"/>
<path d="M-133.725 246.926C-80.148 218.164 -47.9687 252.186 -4.33188 279.681C20.4509 295.296 47.135 313.362 77.5048 303.308C126.687 287.026 159.041 238.072 196.324 205.517C220.39 184.508 243.43 179.631 264.043 206.209C281.921 229.252 293.404 262.441 325.216 269.119C352.918 274.929 372.481 252.12 396.246 242.824C431.219 229.135 465.841 259.064 491.683 278.681" stroke="#4D4D4D" stroke-miterlimit="10"/>
<path d="M-133.725 237.289C-81.8324 204.683 -49.4947 238.539 -8.56798 269.269C13.2629 285.659 37.979 308.36 67.4733 300.665C85.4267 295.98 101.345 282.666 115.054 270.911C141.405 248.326 163.277 221.682 188.294 197.822C212.276 174.946 235.916 165.942 256.48 196.121C271.807 218.614 283.564 253.362 314.376 258.272C343.67 262.941 365.109 237.814 390.801 229.127C427.858 216.588 465.216 250.286 491.683 270.944" stroke="#4D4D4D" stroke-miterlimit="10"/>
<path d="M-133.725 228.552C-113.495 214.004 -91.1719 204.875 -66.5224 213.737C-44.5748 221.632 -27.5137 239.973 -10.6443 255.254C8.36808 272.478 32.3838 303.058 61.5695 297.047C77.9968 293.662 92.4479 281.09 104.723 270.386C131.815 246.751 155.564 219.373 179.922 193.037C202.72 168.376 227.986 150.636 249.25 184.958C263.568 208.06 274.683 244.6 307.155 245.884C335.973 247.026 357.629 224.016 383.605 215.529C423.447 202.516 463.865 240.765 491.692 263.233" stroke="#4D4D4D" stroke-miterlimit="10"/>
<path d="M-133.725 220.532C-112.961 204.358 -89.8293 193.62 -63.6039 202.941C-41.4728 210.803 -23.1442 228.727 -6.78349 244.842C10.2276 261.607 33.0592 294.538 60.9107 288.919C76.4958 285.776 90.2048 273.179 101.696 262.958C127.971 239.573 151.436 212.912 175.177 187.043C196.916 163.358 222.449 141.765 244.013 175.93C258.123 198.281 268.838 233.954 300.7 234.396C329.269 234.788 353.093 214.054 379.769 206.951C421.287 195.888 461.864 232.153 491.683 255.321" stroke="#4D4D4D" stroke-miterlimit="10"/>
<path d="M-133.725 211.594C-110.818 193.579 -86.3771 183.891 -58.3755 196.396C-35.2187 206.742 -14.9388 226.317 2.98124 243.65C19.0584 259.206 38.9797 285.459 64.3296 277.28C79.798 272.287 93.2485 258.948 104.789 248.226C127.921 226.742 149.418 203.474 171.241 180.681C192.038 158.947 217.271 137.805 239.627 168.11C255.529 189.669 265.653 224.15 297.398 225.725C325.675 227.126 353.018 208.476 380.277 203.474C421.504 195.905 459.846 224.316 491.692 246.209" stroke="#4D4D4D" stroke-miterlimit="10"/>
<path d="M-133.725 201.665C-109.092 182.874 -83.9922 174.612 -55.2151 189.452C-33.1673 200.815 -12.8207 219.114 5.3161 235.813C22.2188 251.378 42.974 278.197 68.5157 266.326C81.8494 260.131 92.8232 248.335 103.297 238.356C125.328 217.347 146.166 195.071 167.68 173.545C189.937 151.278 215.153 134.012 238.243 163.616C254.137 184 265.586 216.088 295.722 217.422C323.449 218.656 350.992 205.375 378.051 200.957C419.82 194.137 456.902 215.429 491.692 235.946" stroke="#4D4D4D" stroke-miterlimit="10"/>
<path d="M-133.725 190.927C-105.314 170.436 -78.2134 165.8 -47.9603 184.867C-26.2212 198.564 -6.12472 217.122 13.3296 233.854C29.5736 247.826 47.8438 269.76 70.5753 257.055C82.7499 250.252 92.8815 238.122 102.58 228.31C123.226 207.409 143.331 186 164.578 165.7C186.593 144.666 211.792 129.485 235.224 156.063C252.719 175.905 264.835 207.551 294.897 210.419C321.389 212.945 350.258 202.591 376.316 198.556C417.96 192.111 454.601 206.826 491.675 224.792" stroke="#4D4D4D" stroke-miterlimit="10"/>
<path d="M-133.725 179.581C-102.946 158.881 -74.6444 156.663 -43.7993 178.322C-20.5258 194.662 0.387857 215.313 22.519 233.22C37.7372 245.525 54.5732 262.399 73.5939 248.26C86.1688 238.914 96.4338 224.833 106.874 213.362C124.527 193.979 142.622 174.854 162.043 157.23C185.842 135.629 211.651 125.425 235.616 151.461C253.161 170.519 266.603 200.265 295.43 203.491C322.715 206.542 352.217 199.381 379.243 195.671C418.986 190.219 454.359 199.098 491.683 212.912" stroke="#4D4D4D" stroke-miterlimit="10"/>
<path d="M-133.725 167.801C-98.6351 145.867 -68.8073 148.201 -36.5946 173.912C-12.1536 193.42 8.67662 216.121 34.1516 234.529C51.6296 247.151 64.2295 254.279 80.1816 236.688C107.291 206.792 129.247 172.72 161.009 146.942C184.325 128.026 209.975 120.973 233.206 142.991C252.836 161.59 266.044 190.144 294.38 196.847C320.538 203.024 353.368 196.93 379.669 193.345C418.486 188.051 453.517 191.161 491.692 200.565" stroke="#4D4D4D" stroke-miterlimit="10"/>
<path d="M-133.725 155.788C-94.4323 132.87 -62.4364 140.315 -29.3065 169.652C-5.57434 190.669 14.1635 215.004 41.0978 232.27C60.869 244.95 71.2758 247.193 84.8013 227.001C106.232 195.012 127.804 162.315 159.025 138.722C184.266 119.639 209.841 115.354 234.507 137.355C255.046 155.679 269.664 185.158 298.707 191.644C324.466 197.397 354.527 194.662 380.494 191.128C418.194 185.992 453.609 183.674 491.692 187.918" stroke="#4D4D4D" stroke-miterlimit="10"/>
<path d="M-133.725 143.733C-90.8967 120.098 -57.3915 131.744 -23.4443 164.083C0.579672 186.967 20.3843 214.921 49.9619 231.144C71.9179 243.191 79.6229 236.93 90.0964 216.28C106.757 183.441 127.829 150.252 158.691 128.86C184.817 110.744 211.242 110.185 235.783 131.002C257.189 149.168 272.782 177.88 301.459 185.934C362.966 203.208 429.901 177.388 491.692 175.246" stroke="#4D4D4D" stroke-miterlimit="10"/>
<path d="M-133.725 131.819C-112.419 120.473 -92.3893 113.737 -68.5488 121.999C-48.8276 128.835 -32.6754 143.182 -18.2076 157.797C5.65799 181.924 26.063 214.387 57.8587 228.727C81.7076 239.481 87.353 224.992 95.3999 204.775C108.517 171.794 128.321 138.005 159.267 118.697C226.711 76.6046 251.051 161.774 304.711 180.24C367.377 201.807 430.41 174.596 491.692 162.732" stroke="#4D4D4D" stroke-miterlimit="10"/>
<path d="M-133.725 120.24C-111.502 108.485 -91.0218 101.932 -66.7476 110.861C-46.3843 118.347 -29.9236 133.645 -15.1723 149.143C8.02618 173.512 32.0168 215.696 66.6227 225.4C90.8469 232.195 94.666 209.535 100.803 191.294C111.544 159.364 130.056 124.158 161.026 107.267C225.318 72.2027 257.697 151.044 306.237 173.328C369.921 202.566 431.586 172.586 491.683 150.594" stroke="#4D4D4D" stroke-miterlimit="10"/>
<path d="M-133.725 109.193C-111.285 96.9881 -91.0718 90.3604 -66.3723 99.0056C-45.8923 106.175 -29.1564 122.174 -14.5969 137.764C9.02685 163.066 34.3517 211.128 71.084 218.297C96.0503 223.174 99.5526 198.239 105.006 179.514C114.371 147.393 131.232 111.836 163.594 96.8964C227.978 67.1757 262.701 142.866 310.19 167.343C334.914 180.081 366.927 186.609 394.47 182.174C429.384 176.555 461.314 155.871 491.692 139.089" stroke="#4D4D4D" stroke-miterlimit="10"/>
<path d="M-133.725 98.8556C-109.826 85.0414 -86.7273 77.0798 -60.2684 89.0181C-40.4137 97.9802 -24.6618 114.454 -10.4275 130.444C10.9031 154.404 37.7873 204.883 73.669 208.668C100.678 211.519 104.089 182.032 109.876 162.124C118.823 131.352 134.934 98.3637 167.363 86.492C231.263 63.0906 268.213 133.262 314.318 160.681C337.616 174.537 368.069 184.025 395.32 180.631C431.828 176.08 463.423 149.668 491.675 128.368" stroke="#4D4D4D" stroke-miterlimit="10"/>
<path d="M-133.725 89.4266C-111.16 75.054 -88.9454 65.0498 -62.2864 75.8126C-40.9224 84.4412 -23.9113 102.757 -9.23509 119.873C11.7453 144.341 38.1291 194.579 75.4034 195.463C101.979 196.088 106.899 166.175 113.17 146.2C122.868 115.337 138.203 85.4 172.217 76.6713C237.351 59.9476 273.516 124.108 320.121 154.887C342.936 169.96 373.364 182.391 401.158 178.381C437.506 173.128 466.709 142.924 491.683 118.697" stroke="#4D4D4D" stroke-miterlimit="10"/>
<path d="M-133.725 81.0982C-113.011 66.0835 -91.4971 53.5033 -65.1549 62.3236C-44.6248 69.1932 -28.456 86.0169 -14.6386 101.974C7.99282 128.101 30.7577 174.579 69.7164 177.547C99.3357 179.798 107.032 151.019 115.555 128.251C127.179 97.1882 143.381 70.8855 178.979 66.0752C242.087 57.5466 278.453 111.794 322.298 145.942C344.279 163.057 374.04 179.448 402.8 176.646C440.95 172.928 469.027 137.463 491.683 110.277" stroke="#4D4D4D" stroke-miterlimit="10"/>
<path d="M-133.725 74.5287C-113.111 60.1477 -91.8556 48.3094 -66.0388 56.7129C-45.934 63.2573 -29.9319 79.3391 -16.2813 94.8122C5.708 119.723 28.9815 167.543 66.8229 168.852C96.0836 169.86 106.098 143.949 116.589 121.173C130.039 91.986 148.243 65.2665 182.765 60.6062C243.663 52.3861 281.705 103.066 324.924 135.479C346.13 151.378 376.041 167.551 403.276 167.017C441.35 166.267 469.552 130.06 491.683 103.633" stroke="#4D4D4D" stroke-miterlimit="10"/>
<path d="M-133.725 70.0353C-113.436 56.1544 -92.4894 44.6413 -67.1812 52.2945C-47.6268 58.2053 -31.8582 73.2616 -18.4244 88.0011C3.21472 111.753 26.3882 159.073 63.0037 159.298C91.7141 159.473 103.939 136.63 116.472 114.379C131.782 87.2008 151.878 61.1232 185.175 56.5546C243.872 48.5096 283.523 93.9619 326.767 124.216C347.764 138.906 377.35 155.296 403.334 157.614C441.217 160.99 469.877 124.425 491.675 98.9474" stroke="#4D4D4D" stroke-miterlimit="10"/>
<path d="M-133.725 67.2507C-114.262 53.9534 -93.4567 42.4569 -69.1492 48.6262C-48.4273 53.8784 -31.9666 69.5433 -17.8574 84.708C3.58995 107.759 25.0956 150.577 60.9273 148.985C88.0367 147.784 101.854 127.209 116.013 106.959C133.4 82.0819 154.388 58.7554 186.226 54.2369C244.038 46.0251 284.54 85.3166 329.519 113.345C350.299 126.3 376.667 141.665 400.607 147.859C439.416 157.897 468.968 121.54 491.683 95.8626" stroke="#4D4D4D" stroke-miterlimit="10"/>
<path d="M-133.725 65.8168C-114.796 52.7196 -94.4323 40.973 -70.5251 45.8334C-50.6204 49.8851 -34.4432 63.8243 -20.5758 77.8218C1.17172 99.7643 21.4182 139.172 56.1326 137.63C82.4664 136.463 98.3017 119.139 114.412 100.473C133.717 78.1136 155.998 56.8714 186.609 52.4195C241.979 44.3661 284.406 75.7793 329.911 100.773C352.493 113.178 376.241 128.343 399.948 138.38C438.115 154.546 468.118 119.564 491.675 94.0452" stroke="#4D4D4D" stroke-miterlimit="10"/>
<path d="M-133.725 65.3749C-93.8986 37.1464 -59.4512 37.2882 -23.2859 70.7605C-1.07974 91.3108 17.7909 126.584 51.2877 125.383C76.7627 124.466 94.4743 110.427 112.428 93.9452C133.583 74.5288 156.89 55.7459 186.284 51.3774C239.044 43.5324 283.714 66.2503 329.628 87.801C354.902 99.6643 375.349 114.546 398.889 128.977C436.064 151.761 466.409 119.231 491.692 93.1782" stroke="#4D4D4D" stroke-miterlimit="10"/>
<path d="M-133.725 65.5667C-96.6588 38.422 -62.5448 33.1531 -25.8376 63.3657C-3.04771 82.1236 14.5054 112.853 46.643 112.22C100.153 111.169 133.108 58.7721 185.409 50.8688C235.508 43.299 282.572 56.7213 328.652 74.5037C356.82 85.3749 374.557 100.773 397.405 119.556C433.245 149.018 463.707 120.198 491.683 92.8781" stroke="#4D4D4D" stroke-miterlimit="10"/>
<path d="M-133.725 66.0336C-99.8275 40.2061 -65.9804 29.2682 -28.9563 54.8539C-6.06635 70.6688 10.7196 97.0966 40.2972 98.1137C93.4819 99.9561 133.058 58.3053 184.099 50.3437C230.671 43.0823 280.446 47.109 325.375 60.5813C357.362 70.177 373.698 87.6259 396.246 110.919C404.668 119.623 414.141 128.685 426.791 130.052C451.957 132.761 475.498 107.826 491.683 92.8531" stroke="#4D4D4D" stroke-miterlimit="10"/>
<path d="M-133.725 66.417C-102.187 41.4232 -68.4987 25.5416 -30.649 46.467C-7.23377 59.4141 9.05185 81.39 36.9784 83.0156C88.9373 86.0419 132.708 58.2053 182.69 50.4437C227.528 43.4824 278.336 37.68 323.115 47.284C357.563 54.6704 373.056 75.2707 393.936 101.598C401.933 111.686 410.989 123.291 424.206 126.459C449.739 132.578 474.931 107.426 491.675 92.7614" stroke="#4D4D4D" stroke-miterlimit="10"/>
<path d="M-133.725 66.3503C-102.946 41.0064 -68.7406 21.3898 -29.1147 38.2969C-7.50896 47.5174 8.5682 64.4162 32.6089 66.7672C84.2759 71.8276 131.257 58.0969 181.706 50.6938C208.29 46.7921 234.482 42.9238 260.841 37.6133C281.329 33.4866 301.242 31.344 322.073 34.3286C358.063 39.4807 373.264 65.1915 391.927 93.2032C399.398 104.416 408.379 118.339 421.954 122.799C447.971 131.353 473.922 107.009 491.683 92.2278" stroke="#4D4D4D" stroke-miterlimit="10"/>
<path d="M-133.725 65.4833C-104.08 40.2895 -69.858 16.9463 -29.3399 27.7425C-7.85918 33.4699 9.47712 46.7922 31.8 49.61C82.7249 56.0294 129.906 57.4883 180.789 50.402C207.731 46.6504 232.99 41.1231 258.69 32.2194C278.478 25.3665 297.465 19.7475 318.679 21.2481C356.453 23.9159 371.797 54.287 388.85 83.7827C396.113 96.3463 404.885 112.511 418.961 118.622C445.478 130.135 472.804 105.942 491.7 90.9607" stroke="#4D4D4D" stroke-miterlimit="10"/>
<path d="M-133.725 63.4574C-104.497 38.0301 -70.4083 12.0609 -29.4066 15.9959C-7.39221 18.1051 12.7543 28.5094 34.6102 31.7274C84.5678 39.0889 128.513 55.8876 179.83 49.6266C206.981 46.3085 231.38 39.2222 255.846 27.1005C274.275 17.9717 291.836 8.73448 312.95 8.4677C353.993 7.96749 369.495 43.8075 386.023 75.4207C393.161 89.0764 401.741 106.842 416.284 114.162C443.268 127.751 471.72 103.816 491.683 88.5846" stroke="#4D4D4D" stroke-miterlimit="10"/>
<path d="M-133.725 59.9143C-103.897 33.6617 -69.7162 6.00009 -28.3142 3.26561C-5.9913 1.78999 17.5074 8.4261 39.2299 12.928C88.0867 23.0489 128.763 53.8368 180.647 48.2344C207.323 45.3582 230.88 36.6796 253.244 22.0401C271.29 10.2269 287.825 -2.43678 310.232 -3.74566C352.167 -6.18835 367.527 35.4374 382.829 67.0256C390.1 82.0236 398.447 100.165 413.441 109.043C440.366 124.983 471.412 99.7977 491.683 84.7914" stroke="#4D4D4D" stroke-miterlimit="10"/>
<path d="M-133.725 54.4787C-82.683 9.65991 -28.8896 -24.8962 40.5974 -8.10585C90.063 3.84915 128.163 50.3436 181.831 45.9584C209.024 43.7325 231.931 32.8196 252.619 15.5374C268.821 2.00672 283.256 -12.8328 305.362 -15.2255C347.523 -19.7857 362.974 22.8488 377.425 54.3953C385.314 71.6109 393.853 93.1449 410.972 103.399C438.574 119.931 470.628 94.5288 491.675 79.2224" stroke="#4D4D4D" stroke-miterlimit="10"/>
<path d="M-133.725 47.0923C-84.6092 5.14143 -21.4264 -41.2613 47.2851 -22.0199C95.5166 -8.51429 131.957 42.9156 184.967 40.1978C211.476 38.8389 233.999 26.1419 252.711 8.15102C267.554 -6.11328 280.821 -22.2034 302.652 -24.621C343.095 -29.1146 359.555 12.9697 373.806 42.8906C382.337 60.7897 391.276 82.6989 408.821 93.7118C436.914 111.344 469.36 87.2675 491.675 71.7276" stroke="#4D4D4D" stroke-miterlimit="10"/>
<path d="M-133.725 39.3724C-84.4341 -0.794441 -19.7253 -45.1463 47.9022 -28.4894C97.6096 -16.2509 136.985 34.7871 190.804 31.294C215.195 29.71 235.633 17.8634 252.761 1.15638C266.428 -12.1742 278.411 -27.3639 298.366 -30.6236C338.166 -37.1263 357.829 6.01674 373.273 34.6287C382.145 51.0523 391.768 70.0852 407.87 80.6813C436.03 99.2141 467.718 78.6972 491.683 63.274" stroke="#4D4D4D" stroke-miterlimit="10"/>
<path d="M-133.725 31.6524C-83.5002 -7.09715 -15.6393 -49.9484 51.4879 -32.8746C100.295 -20.4611 142.072 26.1251 194.74 23.2656C217.196 22.0484 236.859 10.085 252.561 -5.13799C265.144 -17.3348 276.343 -31.8659 294.421 -35.6925C333.597 -43.9793 356.128 -0.502715 373.189 26.642C383.446 42.9572 394.17 60.9147 411.781 70.1435C439.649 84.7413 467.367 68.6262 491.683 54.1952" stroke="#4D4D4D" stroke-miterlimit="10"/>
<path d="M-133.725 23.9326C-81.8908 -13.6081 -12.3788 -53.033 54.6816 -36.426C103.021 -24.4544 146.575 18.6804 198.434 15.1372C219.322 13.7116 237.176 3.21556 252.102 -10.8153C264.652 -22.6119 275.926 -36.9929 293.854 -40.3027C331.104 -47.1889 355.369 -6.36345 373.548 18.9305C383.98 33.4449 395.037 48.2511 410.939 57.0464C438.607 72.3362 466.492 58.3386 491.683 44.5995" stroke="#4D4D4D" stroke-miterlimit="10"/>
<path d="M-133.725 16.2127C-81.5322 -18.927 -14.1883 -52.8495 51.2544 -40.5194C101.904 -30.9737 147.676 11.344 200.869 7.61744C221.04 6.20018 238.218 -4.08747 252.911 -17.3097C264.927 -28.1309 275.843 -40.6028 292.495 -43.7457C326.968 -50.2568 352.634 -15.0921 371.58 7.88422C383.98 22.9322 397.53 39.4474 416.084 47.1423C442.318 58.0219 468.143 46.4003 491.692 34.6121" stroke="#4D4D4D" stroke-miterlimit="10"/>
<path d="M-133.725 8.4928C-80.2314 -24.571 -11.4949 -54.9087 53.3391 -42.5119C102.763 -33.0579 150.786 4.49113 202.478 0.6812C240.019 -2.08663 256.405 -38.877 290.244 -46.3301C324.266 -53.8166 351.967 -20.6861 372.881 0.756234C385.456 13.6533 398.581 27.2006 415.559 34.2036C441.842 45.0414 467.351 35.4291 491.675 24.3411" stroke="#4D4D4D" stroke-miterlimit="10"/>
<path d="M-133.725 0.772814C-78.8221 -29.915 -11.3865 -54.8255 52.8388 -44.4961C102.663 -36.4844 151.57 -2.4452 203.162 -6.30515C238.602 -8.95626 257.547 -42.0118 290.26 -48.4228C322.156 -54.6671 349.599 -28.3644 371.505 -9.148C385.03 2.72363 398.948 15.1788 415.984 21.7733C442.076 31.8775 467.034 24.1243 491.692 13.9283" stroke="#4D4D4D" stroke-miterlimit="10"/>
<path d="M-133.725 -6.94698C-77.9966 -34.5585 -11.3114 -54.9504 51.7547 -45.9633C101.612 -38.8603 151.678 -9.41468 202.845 -13.1246C236.85 -15.5923 258.848 -44.2709 290.961 -50.1067C322.64 -55.8675 351.492 -32.0992 375.182 -14.7336C388.049 -5.30463 401.458 4.2327 416.634 9.60162C442.793 18.8555 466.667 12.7529 491.683 3.48238" stroke="#4D4D4D" stroke-miterlimit="10"/>
<path d="M-133.725 -14.667C-77.4045 -38.7437 -11.6533 -54.8671 50.1703 -47.2306C100.111 -41.0614 150.644 -16.4427 201.536 -19.8108C234.933 -22.02 260.466 -46.0051 292.687 -51.2323C322.423 -56.051 350.458 -38.1101 374.79 -23.504C414.341 0.239273 446.979 7.73408 491.683 -6.89705" stroke="#4D4D4D" stroke-miterlimit="10"/>
</g>
</g>
<defs>
<clipPath id="clip0_146_11531">
<rect width="626" height="418" fill="white" transform="translate(-134 -54)"/>
</clipPath>
</defs>
</svg>
