<svg width="1053" height="266" viewBox="0 0 1053 266" fill="none" xmlns="http://www.w3.org/2000/svg">
<g clip-path="url(#clip0_115_1707)">
<path d="M-100.82 418.051C75.8921 360.931 211.572 425.129 373.856 488.764C461.482 523.108 550.107 550.962 643.474 522.569C781.896 480.479 872.111 365.83 986.544 286.088C1181.09 150.535 1244.96 440.185 1412.06 474.247C1483.18 488.738 1527.09 439.185 1587.98 414.998C1673.99 380.834 1752.96 438.98 1821.36 486.763" stroke="url(#paint0_linear_115_1707)" stroke-miterlimit="10"/>
<path d="M-100.82 383.271C-21.6521 353.082 55.6195 346.131 137.504 370.498C213.11 392.992 278.029 438.415 349.38 470.553C433.648 508.513 520.223 541.805 612.437 511.566C758.907 463.526 847.071 333.076 966.605 246.538C1160.16 106.393 1216.46 405.123 1375.36 445.418C1455.81 465.808 1502.43 406.688 1570.84 379.654C1663.28 343.105 1749.65 411.33 1821.36 463.013" stroke="url(#paint1_linear_115_1707)" stroke-miterlimit="10"/>
<path d="M-100.82 349.697C-29.5715 317.405 41.421 307.351 116.668 332.589C190.787 357.443 250.99 409.766 319.266 445.982C398.69 488.123 480.421 530.417 571.815 503.435C725.051 458.242 821.237 311.737 940.156 216.939C1142.93 55.2753 1176.58 380.373 1342.71 417.794C1427.95 437.005 1481.03 368.446 1554.23 341.72C1652.69 305.786 1747.14 384.297 1821.33 439.236" stroke="url(#paint2_linear_115_1707)" stroke-miterlimit="10"/>
<path d="M-100.82 317.815C63.8465 229.327 162.749 334 296.866 418.589C373.036 466.629 455.049 522.21 548.39 491.277C699.55 441.186 798.991 290.576 913.578 190.418C987.544 125.784 1058.36 110.779 1121.71 192.547C1176.66 263.44 1211.95 365.548 1309.73 386.092C1394.87 403.969 1454.99 333.795 1528.04 305.196C1635.52 263.081 1741.94 355.16 1821.36 415.511" stroke="url(#paint3_linear_115_1707)" stroke-miterlimit="10"/>
<path d="M-100.82 288.165C58.6694 187.853 158.059 292.013 283.846 386.554C350.943 436.979 426.908 506.821 517.558 483.147C572.737 468.732 621.663 427.771 663.797 391.607C744.785 322.124 812.01 240.151 888.898 166.745C962.607 96.3645 1035.27 68.6639 1098.47 161.512C1145.57 230.712 1181.71 337.616 1276.41 352.723C1366.44 367.087 1432.34 289.781 1511.3 263.055C1625.2 224.48 1740.01 328.152 1821.36 391.709" stroke="url(#paint4_linear_115_1707)" stroke-miterlimit="10"/>
<path d="M-100.82 261.286C-38.6442 216.529 29.9648 188.443 105.724 215.708C173.18 239.997 225.617 296.424 277.465 343.438C335.899 396.429 409.711 490.508 499.412 472.015C549.902 461.602 594.317 422.924 632.043 389.991C715.312 317.277 788.303 233.046 863.166 152.022C933.236 76.1533 1010.89 21.5728 1076.25 127.169C1120.25 198.241 1154.41 310.659 1254.21 314.609C1342.79 318.123 1409.35 247.333 1489.18 221.222C1611.64 181.185 1735.86 298.861 1821.39 367.984" stroke="url(#paint5_linear_115_1707)" stroke-miterlimit="10"/>
<path d="M-100.82 236.612C-37.0039 186.853 34.0911 153.818 114.695 182.493C182.714 206.68 239.047 261.824 289.331 311.403C341.614 362.983 411.787 464.295 497.388 447.008C545.289 437.338 587.423 398.583 622.74 367.138C703.497 295.193 775.617 213.169 848.583 133.581C915.398 60.7128 993.874 -5.71736 1060.15 99.391C1103.52 168.155 1136.45 277.906 1234.38 279.265C1322.18 280.471 1395.4 216.683 1477.39 194.83C1605 160.794 1729.71 272.366 1821.36 343.644" stroke="url(#paint6_linear_115_1707)" stroke-miterlimit="10"/>
<path d="M-100.82 209.116C-30.4173 153.689 44.7015 123.886 130.764 162.359C201.936 194.189 264.266 254.412 319.343 307.735C368.756 355.596 429.983 436.364 507.896 411.202C555.438 395.839 596.777 354.801 632.248 321.816C703.343 255.72 769.415 184.134 836.486 114.011C900.405 47.1446 977.959 -17.9004 1046.67 75.3326C1095.54 141.66 1126.66 247.743 1224.23 252.591C1311.14 256.9 1395.17 199.524 1478.96 184.134C1605.67 160.845 1723.51 248.256 1821.39 315.61" stroke="url(#paint7_linear_115_1707)" stroke-miterlimit="10"/>
<path d="M-100.82 178.569C-25.112 120.757 52.0315 95.3386 140.477 140.993C208.241 175.952 270.776 232.251 326.519 283.626C378.469 331.512 442.26 414.024 520.762 377.5C561.742 358.443 595.47 322.15 627.66 291.449C695.372 226.814 759.419 158.281 825.542 92.0556C893.946 23.5479 971.449 -29.5705 1042.42 61.508C1091.26 124.219 1126.45 222.941 1219.08 227.045C1304.29 230.841 1388.95 189.982 1472.11 176.389C1600.49 155.408 1714.46 220.915 1821.39 284.036" stroke="url(#paint8_linear_115_1707)" stroke-miterlimit="10"/>
<path d="M-100.82 145.533C-13.5021 82.4886 69.7924 68.2279 162.775 126.886C229.59 169.027 291.356 226.121 351.148 277.598C401.074 320.585 457.227 388.067 527.092 348.979C564.51 328.049 595.65 290.73 625.456 260.542C688.914 196.241 750.706 130.375 816.008 67.9202C883.669 3.2085 961.12 -43.4978 1033.14 38.2703C1086.91 99.3142 1124.15 196.677 1216.54 205.5C1297.96 213.271 1386.69 181.416 1466.78 169.002C1594.77 149.175 1707.39 194.445 1821.33 249.718" stroke="url(#paint9_linear_115_1707)" stroke-miterlimit="10"/>
<path d="M-100.82 110.625C-6.22341 46.9394 80.7617 40.1169 175.564 106.752C247.094 157.024 311.372 220.555 379.392 275.649C426.165 313.506 477.91 365.419 536.37 321.919C575.018 293.167 606.568 249.846 638.655 214.554C692.912 154.92 748.527 96.0823 808.217 41.861C881.363 -24.5948 960.685 -55.9888 1034.34 24.1121C1088.27 82.745 1129.58 174.26 1218.18 184.186C1302.04 193.573 1392.71 171.541 1475.78 160.127C1597.93 143.353 1706.64 170.669 1821.36 213.169" stroke="url(#paint10_linear_115_1707)" stroke-miterlimit="10"/>
<path d="M-100.82 74.3836C7.02682 6.90187 98.702 14.0835 197.707 93.1841C272.826 153.202 336.847 223.043 415.144 279.676C468.863 318.508 507.588 340.438 556.617 286.319C639.937 194.343 707.418 89.5163 805.039 10.2106C876.698 -47.9863 955.533 -69.6851 1026.94 -1.94692C1087.27 55.2753 1127.86 143.122 1214.95 163.744C1295.35 182.749 1396.25 164 1477.08 152.971C1596.39 136.684 1704.06 146.251 1821.39 175.183" stroke="url(#paint11_linear_115_1707)" stroke-miterlimit="10"/>
<path d="M-100.82 37.4238C19.9439 -33.0845 118.283 -10.1802 220.107 80.0776C293.047 144.738 353.711 219.607 436.493 272.725C497.26 311.737 529.245 318.636 570.815 256.515C636.682 158.101 702.984 57.5067 798.939 -15.0791C876.519 -73.789 955.123 -86.9724 1030.93 -19.2855C1094.06 37.0904 1138.99 127.784 1228.25 147.739C1307.42 165.436 1399.81 157.024 1479.62 146.149C1595.49 130.349 1704.34 123.219 1821.39 136.274" stroke="url(#paint12_linear_115_1707)" stroke-miterlimit="10"/>
<path d="M-100.82 0.335817C30.8106 -72.3782 133.788 -36.547 238.124 62.9443C311.961 133.35 372.831 219.35 463.737 269.262C531.218 306.325 554.899 287.063 587.09 223.531C638.296 122.501 703.061 20.3931 797.914 -45.4214C878.21 -101.156 959.429 -102.875 1034.86 -38.8297C1100.64 17.0588 1148.57 105.393 1236.71 130.17C1425.75 183.314 1631.47 103.88 1821.39 97.2879" stroke="url(#paint13_linear_115_1707)" stroke-miterlimit="10"/>
<path d="M-100.82 -36.3162C-35.338 -71.2241 26.223 -91.9482 99.4965 -66.5303C160.109 -45.4984 209.753 -1.357 254.219 43.6052C327.57 117.832 390.284 217.709 488.008 261.824C561.307 294.911 578.658 250.334 603.39 188.136C643.704 86.6693 704.573 -17.2849 799.683 -76.6872C1006.97 -206.188 1081.78 55.8396 1246.7 112.651C1439.31 179.005 1633.04 95.2873 1821.39 58.7892" stroke="url(#paint14_linear_115_1707)" stroke-miterlimit="10"/>
<path d="M-100.82 -71.9422C-32.5188 -108.107 30.4262 -128.267 105.032 -100.797C167.619 -77.7645 218.21 -30.6991 263.548 16.9818C334.848 91.9529 408.583 221.735 514.944 251.59C589.396 272.494 601.134 202.781 619.997 146.662C653.008 48.4271 709.904 -59.8873 805.091 -111.852C1002.69 -219.73 1102.21 22.8297 1251.4 91.3886C1447.12 181.339 1636.65 89.1059 1821.36 21.4447" stroke="url(#paint15_linear_115_1707)" stroke-miterlimit="10"/>
<path d="M-100.82 -105.927C-31.8525 -143.476 30.2724 -163.867 106.186 -137.27C169.131 -115.212 220.568 -65.9918 265.317 -18.0287C337.924 59.8151 415.759 207.68 528.655 229.738C605.389 244.742 616.153 168.027 632.914 110.42C661.696 11.5955 713.518 -97.7962 812.984 -143.759C1010.87 -235.196 1117.59 -2.33171 1263.54 72.9729C1339.53 112.164 1437.92 132.247 1522.58 118.602C1629.89 101.315 1728.02 37.6803 1821.39 -13.9506" stroke="url(#paint16_linear_115_1707)" stroke-miterlimit="10"/>
<path d="M-100.82 -137.731C-27.3674 -180.231 43.6251 -204.725 124.946 -167.997C185.969 -140.424 234.382 -89.7424 278.131 -40.5482C343.69 33.1662 426.318 188.469 536.6 200.114C619.613 208.885 630.095 118.166 647.882 56.9168C675.382 -37.7525 724.897 -139.244 824.569 -175.768C1020.96 -247.764 1134.53 -31.8789 1276.23 52.4797C1347.84 95.1078 1441.43 124.296 1525.19 113.857C1637.39 99.8528 1734.5 18.5977 1821.33 -46.9347" stroke="url(#paint17_linear_115_1707)" stroke-miterlimit="10"/>
<path d="M-100.82 -166.74C-31.468 -210.958 36.8078 -241.737 118.744 -208.624C184.406 -182.078 236.689 -125.728 281.796 -73.0708C346.279 2.20816 427.369 156.767 541.931 159.486C623.611 161.41 638.732 69.3821 658.005 7.92782C687.812 -87.0236 734.944 -179.128 839.485 -205.982C1039.67 -257.434 1150.83 -60.0412 1294.07 34.6538C1364.19 81.0266 1457.71 119.269 1543.13 106.932C1654.85 90.7731 1744.6 -2.15213 1821.36 -76.6872" stroke="url(#paint18_linear_115_1707)" stroke-miterlimit="10"/>
<path d="M-100.82 -192.363C-37.1577 -238.556 28.9653 -277.26 109.928 -250.124C173.026 -228.989 222.721 -177.23 265.188 -128.139C334.746 -47.7555 404.713 95.2359 524.452 104.367C615.487 111.292 639.142 22.7527 665.335 -47.2938C701.062 -142.861 750.859 -223.783 860.27 -238.582C1054.23 -264.82 1166 -97.9244 1300.76 7.13268C1368.31 59.7895 1459.79 110.215 1548.18 101.597C1665.43 90.1575 1751.73 -18.952 1821.36 -102.592" stroke="url(#paint19_linear_115_1707)" stroke-miterlimit="10"/>
<path d="M-100.82 -212.574C-37.4652 -256.818 27.8633 -293.239 107.211 -267.385C169.003 -247.251 218.185 -197.775 260.14 -150.171C327.723 -73.5324 399.254 73.5885 515.559 77.6153C605.491 80.7188 636.272 1.00265 668.513 -69.0696C709.853 -158.866 765.801 -241.07 871.906 -255.407C1059.07 -280.697 1175.99 -124.779 1308.83 -25.0564C1374 23.8556 1465.94 73.6141 1549.64 71.9726C1666.66 69.6642 1753.34 -41.7281 1821.36 -123.034" stroke="url(#paint20_linear_115_1707)" stroke-miterlimit="10"/>
<path d="M-100.82 -226.399C-38.4648 -269.104 25.9154 -304.525 103.7 -280.979C163.8 -262.794 212.264 -216.473 253.553 -171.126C320.06 -98.0526 391.283 47.5294 503.821 48.2219C592.062 48.7605 629.634 -21.5169 668.154 -89.9733C715.209 -173.588 776.975 -253.817 879.312 -267.873C1059.72 -292.624 1181.58 -152.787 1314.49 -59.7078C1379.03 -14.5148 1469.96 35.9105 1549.82 43.0408C1666.25 53.4285 1754.34 -59.0666 1821.33 -137.449" stroke="url(#paint21_linear_115_1707)" stroke-miterlimit="10"/>
<path d="M-100.82 -234.965C-41.0021 -275.875 22.9425 -311.245 97.6512 -292.265C161.339 -276.106 211.931 -227.912 255.296 -181.257C321.214 -110.338 387.311 21.3933 497.439 16.4944C580.759 12.801 623.227 -50.4999 666.745 -112.801C720.181 -189.336 784.69 -261.101 882.542 -275.003C1060.23 -300.267 1184.71 -179.385 1322.95 -93.1537C1386.82 -53.2957 1467.86 -6.02509 1541.44 13.0319C1660.72 43.9129 1751.55 -67.9411 1821.36 -146.939" stroke="url(#paint22_linear_115_1707)" stroke-miterlimit="10"/>
<path d="M-100.82 -239.377C-42.6423 -279.671 19.9439 -315.81 93.4224 -300.857C154.599 -288.392 204.319 -245.507 246.941 -202.443C313.781 -134.935 376.009 -13.6941 482.702 -18.4391C563.639 -22.0299 612.309 -75.3279 661.824 -132.755C721.155 -201.545 789.636 -266.898 883.72 -280.594C1053.9 -305.371 1184.3 -208.727 1324.16 -131.832C1393.56 -93.6667 1466.55 -47.0117 1539.41 -16.1307C1656.72 33.6021 1748.93 -74.0198 1821.33 -152.53" stroke="url(#paint23_linear_115_1707)" stroke-miterlimit="10"/>
</g>
<defs>
<linearGradient id="paint0_linear_115_1707" x1="860.27" y1="250.197" x2="860.27" y2="534.293" gradientUnits="userSpaceOnUse">
<stop stop-color="#333333"/>
<stop offset="1" stop-color="#333333" stop-opacity="0"/>
</linearGradient>
<linearGradient id="paint1_linear_115_1707" x1="860.27" y1="209.397" x2="860.27" y2="523.325" gradientUnits="userSpaceOnUse">
<stop stop-color="#333333"/>
<stop offset="1" stop-color="#333333" stop-opacity="0"/>
</linearGradient>
<linearGradient id="paint2_linear_115_1707" x1="860.257" y1="172.147" x2="860.257" y2="511.924" gradientUnits="userSpaceOnUse">
<stop stop-color="#333333"/>
<stop offset="1" stop-color="#333333" stop-opacity="0"/>
</linearGradient>
<linearGradient id="paint3_linear_115_1707" x1="860.27" y1="136.476" x2="860.27" y2="500.208" gradientUnits="userSpaceOnUse">
<stop stop-color="#333333"/>
<stop offset="1" stop-color="#333333" stop-opacity="0"/>
</linearGradient>
<linearGradient id="paint4_linear_115_1707" x1="860.27" y1="102.304" x2="860.27" y2="487.902" gradientUnits="userSpaceOnUse">
<stop stop-color="#333333"/>
<stop offset="1" stop-color="#333333" stop-opacity="0"/>
</linearGradient>
<linearGradient id="paint5_linear_115_1707" x1="860.283" y1="68.4487" x2="860.283" y2="474.387" gradientUnits="userSpaceOnUse">
<stop stop-color="#333333"/>
<stop offset="1" stop-color="#333333" stop-opacity="0"/>
</linearGradient>
<linearGradient id="paint6_linear_115_1707" x1="860.27" y1="44.8047" x2="860.27" y2="448.968" gradientUnits="userSpaceOnUse">
<stop stop-color="#333333"/>
<stop offset="1" stop-color="#333333" stop-opacity="0"/>
</linearGradient>
<linearGradient id="paint7_linear_115_1707" x1="860.283" y1="28.8783" x2="860.283" y2="415.95" gradientUnits="userSpaceOnUse">
<stop stop-color="#333333"/>
<stop offset="1" stop-color="#333333" stop-opacity="0"/>
</linearGradient>
<linearGradient id="paint8_linear_115_1707" x1="860.283" y1="13.0766" x2="860.283" y2="386.564" gradientUnits="userSpaceOnUse">
<stop stop-color="#333333"/>
<stop offset="1" stop-color="#333333" stop-opacity="0"/>
</linearGradient>
<linearGradient id="paint9_linear_115_1707" x1="860.257" y1="-5.35193" x2="860.257" y2="360.719" gradientUnits="userSpaceOnUse">
<stop stop-color="#333333"/>
<stop offset="1" stop-color="#333333" stop-opacity="0"/>
</linearGradient>
<linearGradient id="paint10_linear_115_1707" x1="860.27" y1="-23.4747" x2="860.27" y2="338.442" gradientUnits="userSpaceOnUse">
<stop stop-color="#333333"/>
<stop offset="1" stop-color="#333333" stop-opacity="0"/>
</linearGradient>
<linearGradient id="paint11_linear_115_1707" x1="860.283" y1="-43.9317" x2="860.283" y2="318.652" gradientUnits="userSpaceOnUse">
<stop stop-color="#333333"/>
<stop offset="1" stop-color="#333333" stop-opacity="0"/>
</linearGradient>
<linearGradient id="paint12_linear_115_1707" x1="860.283" y1="-64.804" x2="860.283" y2="302.626" gradientUnits="userSpaceOnUse">
<stop stop-color="#333333"/>
<stop offset="1" stop-color="#333333" stop-opacity="0"/>
</linearGradient>
<linearGradient id="paint13_linear_115_1707" x1="860.283" y1="-87.0615" x2="860.283" y2="288.007" gradientUnits="userSpaceOnUse">
<stop stop-color="#333333"/>
<stop offset="1" stop-color="#333333" stop-opacity="0"/>
</linearGradient>
<linearGradient id="paint14_linear_115_1707" x1="860.283" y1="-112.207" x2="860.283" y2="273.063" gradientUnits="userSpaceOnUse">
<stop stop-color="#333333"/>
<stop offset="1" stop-color="#333333" stop-opacity="0"/>
</linearGradient>
<linearGradient id="paint15_linear_115_1707" x1="860.27" y1="-139.107" x2="860.27" y2="255.385" gradientUnits="userSpaceOnUse">
<stop stop-color="#333333"/>
<stop offset="1" stop-color="#333333" stop-opacity="0"/>
</linearGradient>
<linearGradient id="paint16_linear_115_1707" x1="860.283" y1="-164.716" x2="860.283" y2="231.644" gradientUnits="userSpaceOnUse">
<stop stop-color="#333333"/>
<stop offset="1" stop-color="#333333" stop-opacity="0"/>
</linearGradient>
<linearGradient id="paint17_linear_115_1707" x1="860.257" y1="-190.23" x2="860.257" y2="200.705" gradientUnits="userSpaceOnUse">
<stop stop-color="#333333"/>
<stop offset="1" stop-color="#333333" stop-opacity="0"/>
</linearGradient>
<linearGradient id="paint18_linear_115_1707" x1="860.27" y1="-222.544" x2="860.27" y2="159.516" gradientUnits="userSpaceOnUse">
<stop stop-color="#333333"/>
<stop offset="1" stop-color="#333333" stop-opacity="0"/>
</linearGradient>
<linearGradient id="paint19_linear_115_1707" x1="860.27" y1="-259.109" x2="860.27" y2="104.749" gradientUnits="userSpaceOnUse">
<stop stop-color="#333333"/>
<stop offset="1" stop-color="#333333" stop-opacity="0"/>
</linearGradient>
<linearGradient id="paint20_linear_115_1707" x1="860.27" y1="-276.004" x2="860.27" y2="77.7032" gradientUnits="userSpaceOnUse">
<stop stop-color="#333333"/>
<stop offset="1" stop-color="#333333" stop-opacity="0"/>
</linearGradient>
<linearGradient id="paint21_linear_115_1707" x1="860.257" y1="-288.508" x2="860.257" y2="48.225" gradientUnits="userSpaceOnUse">
<stop stop-color="#333333"/>
<stop offset="1" stop-color="#333333" stop-opacity="0"/>
</linearGradient>
<linearGradient id="paint22_linear_115_1707" x1="860.27" y1="-297.532" x2="860.27" y2="18.2907" gradientUnits="userSpaceOnUse">
<stop stop-color="#333333"/>
<stop offset="1" stop-color="#333333" stop-opacity="0"/>
</linearGradient>
<linearGradient id="paint23_linear_115_1707" x1="860.257" y1="-304.303" x2="860.257" y2="-3.47778" gradientUnits="userSpaceOnUse">
<stop stop-color="#333333"/>
<stop offset="1" stop-color="#333333" stop-opacity="0"/>
</linearGradient>
<clipPath id="clip0_115_1707">
<rect width="1924" height="1286" fill="white" transform="translate(-101.668 -608)"/>
</clipPath>
</defs>
</svg>
