<svg width="412" height="298" viewBox="0 0 412 298" fill="none" xmlns="http://www.w3.org/2000/svg">
<g clip-path="url(#clip0_172_3427)">
<path d="M-169.453 401.598C-123.349 380.707 -77.4103 374.202 -28.7188 390.53C19.243 406.61 58.1995 440.461 102.38 463.892C153.775 491.156 206.662 518.519 265.802 501.062C364.959 471.824 427.2 377.04 504.151 315.709C635.366 211.117 657.141 421.445 764.641 445.655C819.8 458.084 854.146 413.729 901.511 396.438C965.228 373.19 1026.34 423.984 1074.35 459.528" stroke="url(#paint0_linear_172_3427)" stroke-miterlimit="10"/>
<path d="M-169.453 380.972C-62.899 323.723 1.09981 391.443 87.8855 446.17C137.174 477.25 190.244 513.209 250.644 493.197C348.458 460.789 412.805 363.35 486.953 298.551C534.816 256.734 580.638 247.027 621.635 299.928C657.191 345.793 680.028 411.853 743.297 425.145C798.39 436.711 837.297 391.31 884.562 372.808C954.117 345.561 1022.97 405.133 1074.37 444.178" stroke="url(#paint1_linear_172_3427)" stroke-miterlimit="10"/>
<path d="M-169.453 361.79C-66.249 296.891 -1.93512 364.279 79.4606 425.444C122.878 458.067 172.034 503.252 230.693 487.936C266.399 478.611 298.058 452.11 325.323 428.713C377.729 383.76 421.23 330.726 470.983 283.234C518.679 237.701 565.696 219.779 606.593 279.849C637.075 324.619 660.458 393.783 721.737 403.556C779.998 412.849 822.636 362.835 873.732 345.544C947.433 320.587 1021.73 387.66 1074.37 428.779" stroke="url(#paint2_linear_172_3427)" stroke-miterlimit="10"/>
<path d="M-169.453 344.399C-129.22 315.443 -84.8234 297.273 -35.8003 314.912C7.84962 330.626 41.7811 367.133 75.3311 397.549C113.143 431.832 160.906 492.699 218.951 480.735C251.622 473.997 280.363 448.974 304.775 427.667C358.657 380.624 405.889 326.129 454.332 273.709C499.674 224.625 549.924 189.313 592.214 257.63C620.689 303.612 642.796 376.342 707.375 378.898C764.691 381.171 807.76 335.372 859.42 318.48C938.66 292.577 1019.04 368.709 1074.39 413.43" stroke="url(#paint3_linear_172_3427)" stroke-miterlimit="10"/>
<path d="M-169.453 328.436C-128.158 296.244 -82.1534 274.871 -29.9958 293.423C14.019 309.071 50.4713 344.748 83.0097 376.824C116.842 410.194 162.249 475.74 217.641 464.556C248.637 458.3 275.902 433.226 298.755 412.882C351.012 366.336 397.68 313.269 444.896 261.778C488.131 214.635 538.912 171.657 581.799 239.659C609.86 284.147 631.17 355.152 694.539 356.032C751.357 356.812 798.738 315.543 851.791 301.405C934.365 279.385 1015.06 351.568 1074.37 397.682" stroke="url(#paint4_linear_172_3427)" stroke-miterlimit="10"/>
<path d="M-169.453 310.647C-123.896 274.788 -75.2875 255.506 -19.5974 280.397C26.4572 300.99 66.7902 339.952 102.43 374.451C134.404 405.415 174.024 457.669 224.441 441.391C255.204 431.451 281.955 404.901 304.908 383.561C350.912 340.798 393.667 294.485 437.068 249.117C478.429 205.857 528.613 163.775 573.076 224.094C604.702 267.006 624.835 335.638 687.972 338.774C744.209 341.562 798.589 304.441 852.803 294.485C934.796 279.418 1011.05 335.97 1074.39 379.545" stroke="url(#paint5_linear_172_3427)" stroke-miterlimit="10"/>
<path d="M-169.453 290.884C-120.463 253.482 -70.5444 237.037 -13.3119 266.574C30.5369 289.192 71.0026 325.615 107.073 358.853C140.69 389.833 181.968 443.216 232.766 419.586C259.284 407.257 281.109 383.777 301.939 363.914C345.755 322.097 387.199 277.758 429.986 234.913C474.25 190.591 524.401 156.225 570.323 215.15C601.932 255.722 624.703 319.592 684.638 322.247C739.781 324.703 794.559 298.269 848.375 289.474C931.446 275.9 1005.2 318.281 1074.39 359.118" stroke="url(#paint6_linear_172_3427)" stroke-miterlimit="10"/>
<path d="M-169.453 269.511C-112.95 228.724 -59.0514 219.497 1.11638 257.447C44.3516 284.711 84.3198 321.649 123.011 354.953C155.317 382.764 191.653 426.423 236.862 401.134C261.075 387.593 281.225 363.449 300.513 343.918C341.575 302.317 381.56 259.704 423.817 219.298C467.6 177.432 517.717 147.214 564.319 200.116C599.113 239.609 623.21 302.599 682.996 308.308C735.685 313.336 793.1 292.726 844.925 284.695C927.747 271.868 1000.62 301.156 1074.35 336.916" stroke="url(#paint7_linear_172_3427)" stroke-miterlimit="10"/>
<path d="M-169.453 246.927C-108.24 205.724 -51.9534 201.31 9.39196 244.421C55.6787 276.945 97.2722 318.048 141.287 353.692C171.553 378.184 205.037 411.77 242.866 383.627C267.875 365.025 288.29 336.998 309.054 314.165C344.163 275.585 380.151 237.518 418.775 202.439C466.107 159.444 517.435 139.133 565.099 190.956C599.992 228.889 626.726 288.096 684.058 294.518C738.322 300.591 796.997 286.337 850.747 278.953C929.787 268.101 1000.14 285.773 1074.37 313.269" stroke="url(#paint8_linear_172_3427)" stroke-miterlimit="10"/>
<path d="M-169.453 223.48C-99.6664 179.821 -40.3444 184.468 23.7208 235.643C72.3294 274.473 113.757 319.658 164.422 356.297C199.183 381.42 224.242 395.608 255.967 360.595C309.883 301.089 353.549 233.27 416.719 181.962C463.089 144.311 514.102 130.272 560.306 174.097C599.345 211.118 625.615 267.952 681.968 281.293C733.993 293.589 799.286 281.459 851.592 274.324C928.792 263.786 998.463 269.976 1074.39 288.694" stroke="url(#paint9_linear_172_3427)" stroke-miterlimit="10"/>
<path d="M-169.453 199.568C-91.3079 153.952 -27.6739 168.77 38.2155 227.164C85.4144 268.997 124.669 317.434 178.237 351.8C217.558 377.04 238.255 381.503 265.155 341.313C307.777 277.642 350.68 212.561 412.772 165.601C462.973 127.617 513.837 119.088 562.893 162.879C603.74 199.352 632.812 258.028 690.575 270.938C741.804 282.388 801.591 276.945 853.234 269.91C928.212 259.688 998.645 255.075 1074.39 263.521" stroke="url(#paint10_linear_172_3427)" stroke-miterlimit="10"/>
<path d="M-169.453 175.573C-84.2762 128.53 -17.6404 151.711 49.8742 216.079C97.6536 261.629 137.041 317.268 195.866 349.56C239.532 373.538 254.856 361.076 275.686 319.973C308.822 254.61 350.73 188.55 412.109 145.97C464.067 109.912 516.623 108.8 565.43 150.235C608.002 186.393 639.015 243.542 696.048 259.572C818.374 293.954 951.496 242.563 1074.39 238.298" stroke="url(#paint11_linear_172_3427)" stroke-miterlimit="10"/>
<path d="M-169.453 151.861C-127.08 129.277 -87.2448 115.869 -39.8302 132.313C-0.608376 145.92 31.5154 174.478 60.2892 203.567C107.753 251.59 148.335 316.206 211.571 344.748C259.002 366.154 270.23 337.314 286.234 297.074C312.321 231.428 351.709 164.173 413.253 125.742C547.387 41.9596 595.796 211.483 702.516 248.238C827.147 291.166 952.508 237.004 1074.39 213.391" stroke="url(#paint12_linear_172_3427)" stroke-miterlimit="10"/>
<path d="M-169.453 128.812C-125.256 105.415 -84.5249 92.3717 -36.248 110.144C4.25083 125.045 36.9882 155.495 66.3259 186.343C112.463 234.847 160.176 318.812 229.001 338.127C277.179 351.651 284.774 306.549 296.98 270.241C318.341 206.687 355.158 136.611 416.752 102.992C544.617 33.198 609.014 190.126 705.551 234.482C832.205 292.676 954.846 233.005 1074.37 189.23" stroke="url(#paint13_linear_172_3427)" stroke-miterlimit="10"/>
<path d="M-169.453 106.825C-124.825 82.5315 -84.6244 69.3394 -35.5017 86.5473C5.2293 100.818 38.514 132.662 67.4702 163.692C114.454 214.055 164.82 309.718 237.874 323.989C287.527 333.696 294.493 284.064 305.339 246.794C323.963 182.858 357.496 112.085 421.86 82.349C549.907 23.1919 618.964 173.848 713.412 222.567C762.584 247.923 826.252 260.916 881.03 252.088C950.468 240.903 1013.97 199.734 1074.39 166.331" stroke="url(#paint14_linear_172_3427)" stroke-miterlimit="10"/>
<path d="M-169.453 86.2486C-121.923 58.7526 -75.984 42.9054 -23.362 66.6679C16.1252 84.5063 47.4529 117.296 75.7623 149.123C118.185 196.814 171.653 297.289 243.015 304.823C296.731 310.498 303.514 251.806 315.024 212.179C332.819 150.931 364.86 85.2696 429.356 61.6399C556.442 15.0609 629.927 154.732 721.621 209.309C767.958 236.888 828.524 255.772 882.721 249.018C955.327 239.958 1018.17 187.388 1074.35 144.991" stroke="url(#paint15_linear_172_3427)" stroke-miterlimit="10"/>
<path d="M-169.453 67.481C-124.576 38.8732 -80.3954 18.9605 -27.3754 40.3832C15.1135 57.5579 48.9455 94.0146 78.1339 128.082C119.86 176.785 172.333 276.779 246.465 278.538C299.319 279.783 309.103 220.244 321.575 180.485C340.862 119.055 371.361 59.4662 439.008 42.0924C568.548 8.80509 640.474 136.511 733.164 197.776C778.539 227.778 839.055 252.519 894.33 244.538C966.621 234.083 1024.7 173.964 1074.37 125.742" stroke="url(#paint16_linear_172_3427)" stroke-miterlimit="10"/>
<path d="M-169.453 50.9036C-128.258 21.0181 -85.4702 -4.02209 -33.0804 13.5342C7.75011 27.2076 39.9071 60.694 67.3873 92.4547C112.397 144.46 157.672 236.971 235.154 242.878C294.061 247.358 309.369 190.076 326.318 144.759C349.436 82.9298 381.66 30.5761 452.458 21.0015C577.968 4.02593 650.292 112.002 737.492 179.971C781.209 214.038 840.398 246.661 897.597 241.086C973.47 233.685 1029.31 163.095 1074.37 108.982" stroke="url(#paint17_linear_172_3427)" stroke-miterlimit="10"/>
<path d="M-169.453 37.8277C-128.457 9.20326 -86.1834 -14.36 -34.8384 2.36659C5.14638 15.3928 36.9716 47.4024 64.1201 78.2006C107.853 127.783 154.14 222.965 229.399 225.571C287.594 227.579 307.511 176.005 328.374 130.67C355.125 72.5752 391.328 19.3919 459.987 10.1159C581.103 -6.24563 656.76 94.6285 742.716 159.145C784.89 190.79 844.378 222.982 898.543 221.92C974.266 220.427 1030.35 148.359 1074.37 95.7569" stroke="url(#paint18_linear_172_3427)" stroke-miterlimit="10"/>
<path d="M-169.453 28.8835C-129.104 1.25476 -87.4438 -21.6614 -37.1104 -6.4282C1.77975 5.33686 33.1407 35.3054 59.858 64.6433C102.894 111.919 148.982 206.106 221.804 206.554C278.903 206.903 303.216 161.435 328.142 117.146C358.591 63.0503 398.559 11.1447 464.78 2.05127C581.517 -13.9618 660.375 76.508 746.382 136.727C788.141 165.965 846.982 198.589 898.659 203.202C974.001 209.923 1031 137.142 1074.35 86.4311" stroke="url(#paint19_linear_172_3427)" stroke-miterlimit="10"/>
<path d="M-169.453 23.3413C-130.745 -3.12596 -89.3675 -26.0089 -41.0243 -13.7294C0.18767 -3.27531 32.9251 27.9046 60.9857 58.0888C103.641 103.971 146.411 189.197 217.674 186.028C271.59 183.638 299.07 142.684 327.23 102.378C361.808 52.8618 403.551 6.43211 466.87 -2.56177C581.849 -18.9067 662.399 59.3002 751.854 115.089C793.183 140.876 845.622 171.458 893.236 183.787C970.419 203.766 1029.19 131.401 1074.37 80.2914" stroke="url(#paint20_linear_172_3427)" stroke-miterlimit="10"/>
<path d="M-169.453 20.4871C-131.807 -5.58184 -91.3079 -28.9626 -43.7607 -19.2884C-4.174 -11.2238 27.9995 16.5212 55.5792 44.3823C98.8311 88.0573 139.098 166.497 208.138 163.427C260.511 161.104 292.005 126.622 324.046 89.4678C362.439 44.9631 406.752 2.68191 467.633 -6.17922C577.752 -22.2089 662.133 40.3168 752.634 90.0652C797.544 114.757 844.776 144.941 891.925 164.92C967.832 197.096 1027.5 127.468 1074.35 76.674" stroke="url(#paint21_linear_172_3427)" stroke-miterlimit="10"/>
<path d="M-169.453 19.6076C-90.2465 -36.5793 -21.7368 -36.2972 50.1893 30.3272C94.3533 71.2311 131.884 141.44 198.503 139.05C249.168 137.225 284.393 109.281 320.099 76.4748C362.173 37.8277 408.526 0.441663 466.986 -8.25352C571.915 -23.8684 660.757 21.3499 752.07 64.2451C802.337 87.8582 843.002 117.478 889.819 146.202C963.752 191.553 1024.1 126.804 1074.39 74.9481" stroke="url(#paint22_linear_172_3427)" stroke-miterlimit="10"/>
<path d="M-169.453 19.9893C-95.7359 -34.0403 -27.8895 -44.5276 45.1146 15.6086C90.4394 52.9448 125.349 114.11 189.265 112.849C295.687 110.758 361.228 6.46533 465.245 -9.26566C564.883 -24.3329 658.485 2.38324 750.13 37.778C806.151 59.4164 841.426 90.0652 886.867 127.451C958.147 186.094 1018.73 128.729 1074.37 74.3508" stroke="url(#paint23_linear_172_3427)" stroke-miterlimit="10"/>
<path d="M-169.453 20.9185C-102.038 -30.4893 -34.7223 -52.2605 38.912 -1.33387C84.4359 30.1447 117.82 82.7473 176.645 84.7717C282.419 88.439 361.128 5.53599 462.641 -10.3112C555.264 -24.7644 654.256 -16.7496 743.612 10.0661C807.229 29.1657 839.718 63.8966 884.562 110.26C901.312 127.584 920.152 145.621 945.31 148.343C995.362 153.736 1042.18 104.104 1074.37 74.301" stroke="url(#paint24_linear_172_3427)" stroke-miterlimit="10"/>
<path d="M-169.453 21.6818C-106.731 -28.0667 -39.7307 -59.678 35.5454 -18.0274C82.1141 7.74291 114.503 51.4844 170.044 54.7202C273.381 60.7437 360.432 5.3368 459.838 -10.1121C549.012 -23.968 650.06 -35.5173 739.118 -16.4012C807.627 -1.699 838.441 39.3044 879.968 91.7079C895.872 111.786 913.883 134.885 940.169 141.191C990.95 153.371 1041.05 103.307 1074.35 74.1184" stroke="url(#paint25_linear_172_3427)" stroke-miterlimit="10"/>
<path d="M-169.453 21.549C-108.24 -28.8963 -40.2117 -67.9417 38.5969 -34.2893C81.5668 -15.9365 113.541 17.6993 161.354 22.3787C264.11 32.4512 357.546 5.12112 457.881 -9.61423C510.752 -17.3802 562.843 -25.0797 615.266 -35.65C656.014 -43.864 695.617 -48.1286 737.045 -42.188C808.622 -31.933 838.856 19.2425 875.971 74.9979C890.831 97.3167 908.692 125.028 935.691 133.906C987.434 150.931 1039.04 102.477 1074.37 73.0564" stroke="url(#paint26_linear_172_3427)" stroke-miterlimit="10"/>
<path d="M-169.453 19.8234C-110.496 -30.3233 -42.434 -76.7861 38.1491 -55.2971C80.8703 -43.8971 115.349 -17.3801 159.745 -11.7714C261.026 1.00591 354.859 3.90984 456.057 -10.1949C509.641 -17.6622 559.875 -28.6639 610.987 -46.3862C650.342 -60.0263 688.104 -71.2106 730.295 -68.2237C805.422 -62.9137 835.937 -2.46221 869.852 56.2469C884.297 81.2539 901.743 113.429 929.738 125.593C982.476 148.509 1036.82 100.353 1074.4 70.5342" stroke="url(#paint27_linear_172_3427)" stroke-miterlimit="10"/>
<path d="M-169.453 15.791C-111.325 -34.8203 -43.5285 -86.5102 38.0165 -78.6779C81.799 -74.4797 121.867 -53.7705 165.334 -47.3653C264.691 -32.7129 352.09 0.723743 454.15 -11.7383C508.148 -18.3426 556.674 -32.4474 605.332 -56.5749C641.984 -74.7452 676.91 -93.1312 718.901 -93.6622C800.529 -94.6578 831.36 -23.3208 864.23 39.6032C878.426 66.7839 895.491 102.145 924.414 116.715C978.081 143.763 1034.67 96.1219 1074.37 65.8049" stroke="url(#paint28_linear_172_3427)" stroke-miterlimit="10"/>
<path d="M-169.453 8.73862C-110.131 -43.5155 -42.152 -98.5739 40.189 -104.017C84.5852 -106.954 131.32 -93.7451 174.522 -84.7844C271.689 -64.6395 352.587 -3.35831 455.775 -14.5094C508.828 -20.2343 555.679 -37.5085 600.158 -66.6473C636.046 -90.1608 668.933 -115.367 713.495 -117.972C796.897 -122.834 827.446 -39.981 857.878 22.8932C872.339 52.7456 888.94 88.8538 918.759 106.526C972.31 138.254 1034.05 88.1237 1074.37 58.2547" stroke="url(#paint29_linear_172_3427)" stroke-miterlimit="10"/>
<path d="M-169.453 -2.08059C-67.9406 -91.2892 39.0447 -160.071 177.242 -126.651C275.62 -102.855 351.393 -10.3111 458.13 -19.0395C512.211 -23.4701 557.768 -45.1914 598.914 -79.5905C631.137 -106.522 659.845 -136.059 703.81 -140.822C787.66 -149.899 818.391 -65.0377 847.131 -2.24651C862.82 32.0198 879.802 74.8818 913.85 95.2922C968.744 128.198 1032.49 77.6364 1074.35 47.17" stroke="url(#paint30_linear_172_3427)" stroke-miterlimit="10"/>
<path d="M-169.453 -16.7828C-71.7716 -100.283 53.8876 -192.645 190.542 -154.346C286.466 -127.464 358.939 -25.0963 464.366 -30.5059C517.087 -33.2107 561.881 -58.4832 599.096 -94.2927C628.617 -122.685 655.002 -154.711 698.42 -159.523C778.854 -168.467 811.591 -84.7015 839.934 -25.1461C856.899 10.4809 874.678 54.0896 909.571 76.0101C965.444 111.106 1029.97 63.183 1074.35 32.2521" stroke="url(#paint31_linear_172_3427)" stroke-miterlimit="10"/>
<path d="M-169.453 -32.1487C-71.4233 -112.098 57.2708 -200.377 191.77 -167.223C290.629 -142.863 368.94 -41.2753 475.975 -48.2281C524.484 -51.381 565.132 -74.9608 599.196 -108.215C626.378 -134.749 650.209 -164.983 689.896 -171.471C769.052 -184.414 808.158 -98.5407 838.872 -41.5906C856.518 -8.90066 875.656 28.9832 907.681 50.074C963.686 86.9621 1026.71 46.1246 1074.37 15.426" stroke="url(#paint32_linear_172_3427)" stroke-miterlimit="10"/>
<path d="M-169.453 -47.5146C-69.5659 -124.643 65.3971 -209.935 198.901 -175.951C295.969 -151.243 379.056 -58.5163 483.802 -64.208C528.464 -66.6307 567.57 -90.4429 598.798 -120.743C623.824 -145.02 646.096 -173.943 682.051 -181.56C759.964 -198.054 804.775 -111.517 838.706 -57.4875C859.105 -25.0133 880.433 10.7299 915.459 29.0993C970.883 58.1552 1026.01 26.0792 1074.37 -2.64476" stroke="url(#paint33_linear_172_3427)" stroke-miterlimit="10"/>
<path d="M-169.453 -62.8805C-66.3651 -137.603 71.8816 -216.075 205.253 -183.02C301.392 -159.191 388.012 -73.3347 491.149 -80.3871C532.693 -83.2246 568.2 -104.116 597.886 -132.044C622.845 -155.524 645.267 -184.149 680.923 -190.736C755.006 -204.443 803.266 -123.183 839.42 -72.8369C860.166 -43.9469 882.157 -14.4762 913.784 3.03029C968.81 33.4634 1024.27 5.60234 1074.37 -21.7444" stroke="url(#paint34_linear_172_3427)" stroke-miterlimit="10"/>
<path d="M-169.453 -78.2464C-65.652 -148.19 68.2828 -215.71 198.436 -191.168C299.169 -172.168 390.201 -87.9373 495.992 -95.3547C536.109 -98.1757 570.273 -118.653 599.495 -144.97C623.393 -166.509 645.101 -191.334 678.22 -197.59C746.78 -210.549 797.826 -140.556 835.506 -94.8237C860.166 -64.8718 887.116 -31.9993 924.016 -16.6832C976.19 4.97181 1027.55 -18.16 1074.39 -41.6238" stroke="url(#paint35_linear_172_3427)" stroke-miterlimit="10"/>
</g>
<defs>
<linearGradient id="paint0_linear_172_3427" x1="452.45" y1="286.73" x2="452.45" y2="506.554" gradientUnits="userSpaceOnUse">
<stop stop-color="#333333"/>
<stop offset="1" stop-color="#333333" stop-opacity="0"/>
</linearGradient>
<linearGradient id="paint1_linear_172_3427" x1="452.458" y1="263.652" x2="452.458" y2="498.974" gradientUnits="userSpaceOnUse">
<stop stop-color="#333333"/>
<stop offset="1" stop-color="#333333" stop-opacity="0"/>
</linearGradient>
<linearGradient id="paint2_linear_172_3427" x1="452.458" y1="241.544" x2="452.458" y2="491.013" gradientUnits="userSpaceOnUse">
<stop stop-color="#333333"/>
<stop offset="1" stop-color="#333333" stop-opacity="0"/>
</linearGradient>
<linearGradient id="paint3_linear_172_3427" x1="452.466" y1="219.64" x2="452.466" y2="482.269" gradientUnits="userSpaceOnUse">
<stop stop-color="#333333"/>
<stop offset="1" stop-color="#333333" stop-opacity="0"/>
</linearGradient>
<linearGradient id="paint4_linear_172_3427" x1="452.458" y1="204.343" x2="452.458" y2="465.824" gradientUnits="userSpaceOnUse">
<stop stop-color="#333333"/>
<stop offset="1" stop-color="#333333" stop-opacity="0"/>
</linearGradient>
<linearGradient id="paint5_linear_172_3427" x1="452.466" y1="194.039" x2="452.466" y2="444.462" gradientUnits="userSpaceOnUse">
<stop stop-color="#333333"/>
<stop offset="1" stop-color="#333333" stop-opacity="0"/>
</linearGradient>
<linearGradient id="paint6_linear_172_3427" x1="452.466" y1="183.816" x2="452.466" y2="425.45" gradientUnits="userSpaceOnUse">
<stop stop-color="#333333"/>
<stop offset="1" stop-color="#333333" stop-opacity="0"/>
</linearGradient>
<linearGradient id="paint7_linear_172_3427" x1="452.45" y1="171.894" x2="452.45" y2="408.73" gradientUnits="userSpaceOnUse">
<stop stop-color="#333333"/>
<stop offset="1" stop-color="#333333" stop-opacity="0"/>
</linearGradient>
<linearGradient id="paint8_linear_172_3427" x1="452.458" y1="160.169" x2="452.458" y2="394.317" gradientUnits="userSpaceOnUse">
<stop stop-color="#333333"/>
<stop offset="1" stop-color="#333333" stop-opacity="0"/>
</linearGradient>
<linearGradient id="paint9_linear_172_3427" x1="452.466" y1="146.934" x2="452.466" y2="381.514" gradientUnits="userSpaceOnUse">
<stop stop-color="#333333"/>
<stop offset="1" stop-color="#333333" stop-opacity="0"/>
</linearGradient>
<linearGradient id="paint10_linear_172_3427" x1="452.466" y1="133.43" x2="452.466" y2="371.145" gradientUnits="userSpaceOnUse">
<stop stop-color="#333333"/>
<stop offset="1" stop-color="#333333" stop-opacity="0"/>
</linearGradient>
<linearGradient id="paint11_linear_172_3427" x1="452.466" y1="119.03" x2="452.466" y2="361.687" gradientUnits="userSpaceOnUse">
<stop stop-color="#333333"/>
<stop offset="1" stop-color="#333333" stop-opacity="0"/>
</linearGradient>
<linearGradient id="paint12_linear_172_3427" x1="452.466" y1="102.762" x2="452.466" y2="352.019" gradientUnits="userSpaceOnUse">
<stop stop-color="#333333"/>
<stop offset="1" stop-color="#333333" stop-opacity="0"/>
</linearGradient>
<linearGradient id="paint13_linear_172_3427" x1="452.458" y1="85.3586" x2="452.458" y2="340.582" gradientUnits="userSpaceOnUse">
<stop stop-color="#333333"/>
<stop offset="1" stop-color="#333333" stop-opacity="0"/>
</linearGradient>
<linearGradient id="paint14_linear_172_3427" x1="452.466" y1="68.7903" x2="452.466" y2="325.222" gradientUnits="userSpaceOnUse">
<stop stop-color="#333333"/>
<stop offset="1" stop-color="#333333" stop-opacity="0"/>
</linearGradient>
<linearGradient id="paint15_linear_172_3427" x1="452.45" y1="52.2833" x2="452.45" y2="305.206" gradientUnits="userSpaceOnUse">
<stop stop-color="#333333"/>
<stop offset="1" stop-color="#333333" stop-opacity="0"/>
</linearGradient>
<linearGradient id="paint16_linear_172_3427" x1="452.458" y1="31.3774" x2="452.458" y2="278.558" gradientUnits="userSpaceOnUse">
<stop stop-color="#333333"/>
<stop offset="1" stop-color="#333333" stop-opacity="0"/>
</linearGradient>
<linearGradient id="paint17_linear_172_3427" x1="452.458" y1="7.72107" x2="452.458" y2="243.125" gradientUnits="userSpaceOnUse">
<stop stop-color="#333333"/>
<stop offset="1" stop-color="#333333" stop-opacity="0"/>
</linearGradient>
<linearGradient id="paint18_linear_172_3427" x1="452.458" y1="-3.20947" x2="452.458" y2="225.628" gradientUnits="userSpaceOnUse">
<stop stop-color="#333333"/>
<stop offset="1" stop-color="#333333" stop-opacity="0"/>
</linearGradient>
<linearGradient id="paint19_linear_172_3427" x1="452.45" y1="-11.299" x2="452.45" y2="206.556" gradientUnits="userSpaceOnUse">
<stop stop-color="#333333"/>
<stop offset="1" stop-color="#333333" stop-opacity="0"/>
</linearGradient>
<linearGradient id="paint20_linear_172_3427" x1="452.458" y1="-17.1373" x2="452.458" y2="187.19" gradientUnits="userSpaceOnUse">
<stop stop-color="#333333"/>
<stop offset="1" stop-color="#333333" stop-opacity="0"/>
</linearGradient>
<linearGradient id="paint21_linear_172_3427" x1="452.45" y1="-21.5182" x2="452.45" y2="173.106" gradientUnits="userSpaceOnUse">
<stop stop-color="#333333"/>
<stop offset="1" stop-color="#333333" stop-opacity="0"/>
</linearGradient>
<linearGradient id="paint22_linear_172_3427" x1="452.466" y1="-21.1793" x2="452.466" y2="161.531" gradientUnits="userSpaceOnUse">
<stop stop-color="#333333"/>
<stop offset="1" stop-color="#333333" stop-opacity="0"/>
</linearGradient>
<linearGradient id="paint23_linear_172_3427" x1="452.458" y1="-25.1938" x2="452.458" y2="152.121" gradientUnits="userSpaceOnUse">
<stop stop-color="#333333"/>
<stop offset="1" stop-color="#333333" stop-opacity="0"/>
</linearGradient>
<linearGradient id="paint24_linear_172_3427" x1="452.458" y1="-30.3083" x2="452.458" y2="148.749" gradientUnits="userSpaceOnUse">
<stop stop-color="#333333"/>
<stop offset="1" stop-color="#333333" stop-opacity="0"/>
</linearGradient>
<linearGradient id="paint25_linear_172_3427" x1="452.45" y1="-37.3145" x2="452.45" y2="143.065" gradientUnits="userSpaceOnUse">
<stop stop-color="#333333"/>
<stop offset="1" stop-color="#333333" stop-opacity="0"/>
</linearGradient>
<linearGradient id="paint26_linear_172_3427" x1="452.458" y1="-46.8724" x2="452.458" y2="137.44" gradientUnits="userSpaceOnUse">
<stop stop-color="#333333"/>
<stop offset="1" stop-color="#333333" stop-opacity="0"/>
</linearGradient>
<linearGradient id="paint27_linear_172_3427" x1="452.475" y1="-68.7106" x2="452.475" y2="131.581" gradientUnits="userSpaceOnUse">
<stop stop-color="#333333"/>
<stop offset="1" stop-color="#333333" stop-opacity="0"/>
</linearGradient>
<linearGradient id="paint28_linear_172_3427" x1="452.458" y1="-93.6725" x2="452.458" y2="124.727" gradientUnits="userSpaceOnUse">
<stop stop-color="#333333"/>
<stop offset="1" stop-color="#333333" stop-opacity="0"/>
</linearGradient>
<linearGradient id="paint29_linear_172_3427" x1="452.458" y1="-118.177" x2="452.458" y2="116.673" gradientUnits="userSpaceOnUse">
<stop stop-color="#333333"/>
<stop offset="1" stop-color="#333333" stop-opacity="0"/>
</linearGradient>
<linearGradient id="paint30_linear_172_3427" x1="452.45" y1="-141.493" x2="452.45" y2="106.011" gradientUnits="userSpaceOnUse">
<stop stop-color="#333333"/>
<stop offset="1" stop-color="#333333" stop-opacity="0"/>
</linearGradient>
<linearGradient id="paint31_linear_172_3427" x1="452.45" y1="-163.266" x2="452.45" y2="88.3291" gradientUnits="userSpaceOnUse">
<stop stop-color="#333333"/>
<stop offset="1" stop-color="#333333" stop-opacity="0"/>
</linearGradient>
<linearGradient id="paint32_linear_172_3427" x1="452.458" y1="-174.384" x2="452.458" y2="64.7086" gradientUnits="userSpaceOnUse">
<stop stop-color="#333333"/>
<stop offset="1" stop-color="#333333" stop-opacity="0"/>
</linearGradient>
<linearGradient id="paint33_linear_172_3427" x1="452.458" y1="-183.632" x2="452.458" y2="40.5438" gradientUnits="userSpaceOnUse">
<stop stop-color="#333333"/>
<stop offset="1" stop-color="#333333" stop-opacity="0"/>
</linearGradient>
<linearGradient id="paint34_linear_172_3427" x1="452.458" y1="-192.271" x2="452.458" y2="16.2789" gradientUnits="userSpaceOnUse">
<stop stop-color="#333333"/>
<stop offset="1" stop-color="#333333" stop-opacity="0"/>
</linearGradient>
<linearGradient id="paint35_linear_172_3427" x1="452.466" y1="-199.164" x2="452.466" y2="-8.0509" gradientUnits="userSpaceOnUse">
<stop stop-color="#333333"/>
<stop offset="1" stop-color="#333333" stop-opacity="0"/>
</linearGradient>
<clipPath id="clip0_172_3427">
<rect width="1245" height="832" fill="white" transform="translate(-170 -218)"/>
</clipPath>
</defs>
</svg>
