<svg width="519" height="340" viewBox="0 0 519 340" fill="none" xmlns="http://www.w3.org/2000/svg">
<g clip-path="url(#clip0_104_11962)">
<path d="M0.847656 490.471C182.968 440.251 337.639 489.856 510.225 546.642C595.827 574.804 681.197 595.887 770.412 572.804C906.143 537.691 994.615 430.838 1108.69 358.842C1293.94 241.961 1376.49 502.244 1538.11 535.382C1608.07 549.745 1647.64 505.091 1709.49 483.521C1787.81 456.205 1860.11 505.399 1923.03 547.437" stroke="url(#paint0_linear_104_11962)" stroke-miterlimit="10"/>
<path d="M0.847656 455.051C177.56 397.931 313.24 462.129 475.524 525.764C563.149 560.108 651.775 587.962 745.142 559.569C883.564 517.479 973.779 402.83 1088.21 323.088C1282.76 187.535 1346.63 477.185 1513.73 511.247C1584.85 525.738 1628.76 476.185 1689.65 451.998C1775.66 417.834 1854.62 475.98 1923.03 523.763" stroke="url(#paint1_linear_104_11962)" stroke-miterlimit="10"/>
<path d="M0.847656 420.271C80.0159 390.082 157.288 383.131 239.172 407.498C314.778 429.991 379.697 475.415 451.048 507.553C535.316 545.513 621.891 578.805 714.105 548.565C860.575 500.525 948.739 370.076 1068.27 283.537C1261.82 143.393 1318.13 442.123 1477.03 482.417C1557.48 502.808 1604.1 443.688 1672.5 416.654C1764.95 380.105 1851.32 448.33 1923.03 500.012" stroke="url(#paint2_linear_104_11962)" stroke-miterlimit="10"/>
<path d="M0.847656 386.697C72.0965 354.405 143.089 344.351 218.336 369.589C292.455 394.443 352.658 446.766 420.934 482.982C500.358 525.123 582.089 567.417 673.483 540.435C826.719 495.242 922.905 348.737 1041.82 253.939C1244.6 92.2753 1278.25 417.372 1444.38 454.794C1529.62 474.005 1582.7 405.446 1655.9 378.72C1754.36 342.786 1848.81 421.297 1923 476.236" stroke="url(#paint3_linear_104_11962)" stroke-miterlimit="10"/>
<path d="M0.847656 354.815C165.514 266.327 264.417 371 398.534 455.589C474.704 503.629 556.717 559.21 650.058 528.277C801.218 478.185 900.659 327.576 1015.25 227.418C1089.21 162.784 1160.02 147.779 1223.38 229.547C1278.33 300.44 1313.62 402.547 1411.39 423.092C1496.53 440.969 1556.66 370.794 1629.7 342.196C1737.19 300.081 1843.6 392.16 1923.03 452.511" stroke="url(#paint4_linear_104_11962)" stroke-miterlimit="10"/>
<path d="M0.847656 325.165C160.337 224.853 259.727 329.013 385.514 423.554C452.611 473.979 528.576 543.821 619.226 520.147C674.405 505.732 723.331 464.771 765.465 428.607C846.453 359.124 913.678 277.151 990.566 203.745C1064.27 133.364 1136.93 105.664 1200.13 198.512C1247.24 267.712 1283.38 374.616 1378.08 389.723C1468.11 404.087 1534 326.781 1612.97 300.055C1726.86 261.48 1841.68 365.152 1923.03 428.709" stroke="url(#paint5_linear_104_11962)" stroke-miterlimit="10"/>
<path d="M0.847656 298.286C63.0238 253.529 131.633 225.443 207.392 252.708C274.848 276.997 327.285 333.424 379.133 380.438C437.567 433.428 511.379 527.508 601.08 509.015C651.57 498.602 695.985 459.924 733.711 426.991C816.98 354.277 889.971 270.046 964.834 189.022C1034.9 113.153 1112.56 58.5728 1177.91 164.168C1221.92 235.241 1256.08 347.659 1355.88 351.609C1444.46 355.123 1511.01 284.333 1590.85 258.222C1713.31 218.185 1837.53 335.861 1923.05 404.984" stroke="url(#paint6_linear_104_11962)" stroke-miterlimit="10"/>
<path d="M0.847656 273.612C64.664 223.853 135.759 190.818 216.363 219.493C284.382 243.68 340.715 298.824 390.999 348.403C443.282 399.983 513.455 501.295 599.056 484.008C646.957 474.338 689.091 435.583 724.408 404.138C805.165 332.193 877.285 250.169 950.251 170.581C1017.07 97.7128 1095.54 31.2826 1161.82 136.391C1205.18 205.155 1238.12 314.906 1336.05 316.265C1423.85 317.471 1497.07 253.683 1579.06 231.83C1706.67 197.794 1831.38 309.366 1923.03 380.644" stroke="url(#paint7_linear_104_11962)" stroke-miterlimit="10"/>
<path d="M0.847656 246.116C71.2507 190.689 146.37 160.885 232.432 199.358C303.604 231.188 365.934 291.412 421.011 344.735C470.423 392.596 531.651 473.363 609.564 448.202C657.106 432.839 698.445 391.801 733.916 358.816C805.011 292.72 871.083 221.134 938.154 151.011C1002.07 84.1445 1079.63 19.0994 1148.34 112.332C1197.21 178.66 1228.33 284.743 1325.9 289.591C1412.8 293.9 1496.84 236.523 1580.62 221.134C1707.33 197.845 1825.18 285.256 1923.05 352.609" stroke="url(#paint8_linear_104_11962)" stroke-miterlimit="10"/>
<path d="M0.847656 215.569C76.5559 157.756 153.699 132.339 242.145 177.993C309.909 212.952 372.444 269.251 428.187 320.626C480.137 368.512 543.928 451.024 622.429 414.5C663.41 395.443 697.138 359.15 729.328 328.448C797.04 263.814 861.087 195.28 927.21 129.056C995.614 60.5479 1073.12 7.4294 1144.08 98.5079C1192.93 161.219 1228.12 259.941 1320.74 264.045C1405.96 267.841 1490.61 226.982 1573.78 213.388C1702.16 192.408 1816.13 257.915 1923.05 321.036" stroke="url(#paint9_linear_104_11962)" stroke-miterlimit="10"/>
<path d="M0.847656 182.533C88.1659 119.489 171.46 105.228 264.443 163.886C331.258 206.027 393.024 263.121 452.816 314.598C502.742 357.585 558.895 425.067 628.76 385.978C666.178 365.049 697.318 327.73 727.124 297.542C790.582 233.24 852.374 167.375 917.676 104.92C985.337 40.2084 1062.79 -6.49789 1134.81 75.2701C1188.58 136.314 1225.81 233.677 1318.21 242.5C1399.63 250.271 1488.36 218.416 1568.45 206.002C1696.44 186.175 1809.06 231.445 1923 286.718" stroke="url(#paint10_linear_104_11962)" stroke-miterlimit="10"/>
<path d="M0.847656 147.625C95.4446 83.9393 182.43 77.1168 277.232 143.752C348.762 194.024 413.04 257.555 481.06 312.649C527.833 350.506 579.578 402.419 638.038 358.919C676.686 330.167 708.236 286.846 740.323 251.554C794.58 191.92 850.195 133.082 909.885 78.8609C983.031 12.4051 1062.35 -18.9889 1136.01 61.112C1189.93 119.745 1231.25 211.259 1319.85 221.185C1403.71 230.573 1494.38 208.541 1577.45 197.127C1699.59 180.353 1808.31 207.669 1923.03 250.169" stroke="url(#paint11_linear_104_11962)" stroke-miterlimit="10"/>
<path d="M0.847656 111.384C108.695 43.9018 200.37 51.0835 299.375 130.184C374.494 190.202 438.515 260.043 516.812 316.676C570.531 355.508 609.256 377.437 658.285 323.319C741.605 231.342 809.086 126.516 906.707 47.2105C978.366 -10.9864 1057.2 -32.6852 1128.6 35.053C1188.93 92.2753 1229.53 180.122 1316.62 200.744C1397.02 219.749 1497.92 201 1578.75 189.971C1698.06 173.684 1805.72 183.251 1923.05 212.183" stroke="url(#paint12_linear_104_11962)" stroke-miterlimit="10"/>
<path d="M0.847656 74.4238C121.612 3.91553 219.951 26.8198 321.775 117.078C394.715 181.738 455.379 256.607 538.161 309.725C598.928 348.737 630.913 355.636 672.483 293.515C738.35 195.101 804.652 94.5067 900.607 21.9209C978.187 -36.789 1056.79 -49.9724 1132.6 17.7145C1195.73 74.0904 1240.65 164.784 1329.92 184.739C1409.09 202.436 1501.48 194.024 1581.29 183.149C1697.16 167.349 1806.01 160.219 1923.05 173.274" stroke="url(#paint13_linear_104_11962)" stroke-miterlimit="10"/>
<path d="M0.847656 37.3358C132.479 -35.3783 235.456 0.452938 339.792 99.9442C413.629 170.35 474.498 256.35 565.405 306.262C632.886 343.325 656.567 324.063 688.758 260.531C739.964 159.501 804.729 57.393 899.582 -8.42151C979.878 -64.1561 1061.1 -65.8746 1136.52 -1.82978C1202.31 54.0587 1250.24 142.393 1338.38 167.169C1527.42 220.314 1733.14 140.88 1923.05 134.288" stroke="url(#paint14_linear_104_11962)" stroke-miterlimit="10"/>
<path d="M0.847656 0.683793C66.3299 -34.2241 127.891 -54.9482 201.164 -29.5304C261.777 -8.49844 311.421 35.643 355.887 80.6051C429.238 154.832 491.952 254.708 589.676 298.824C662.975 331.911 680.326 287.334 705.058 225.136C745.372 123.669 806.241 19.7151 901.351 -39.6873C1108.64 -169.188 1183.45 92.8396 1348.37 149.651C1540.98 216.005 1734.71 132.287 1923.05 95.7892" stroke="url(#paint15_linear_104_11962)" stroke-miterlimit="10"/>
<path d="M0.847656 -34.9423C69.1491 -71.107 132.094 -91.2668 206.7 -63.7971C269.287 -40.7646 319.878 6.30078 365.216 53.9817C436.516 128.953 510.251 258.735 616.612 288.59C691.064 309.494 702.802 239.781 721.665 183.662C754.676 85.427 811.572 -22.8874 906.758 -74.8517C1104.36 -182.73 1203.88 59.8296 1353.06 128.389C1548.79 218.339 1738.32 126.106 1923.03 58.4446" stroke="url(#paint16_linear_104_11962)" stroke-miterlimit="10"/>
<path d="M0.847656 -68.9269C69.8155 -106.477 131.94 -126.867 207.854 -100.27C270.799 -78.2117 322.236 -28.9919 366.985 18.9712C439.592 96.815 517.427 244.68 630.323 266.738C707.057 281.742 717.821 205.027 734.582 147.42C763.364 48.5955 815.186 -60.7962 914.652 -106.759C1112.53 -198.196 1219.25 34.6682 1365.21 109.973C1441.2 149.164 1539.59 169.247 1624.24 155.602C1731.55 138.315 1829.69 74.6802 1923.05 23.0493" stroke="url(#paint17_linear_104_11962)" stroke-miterlimit="10"/>
<path d="M0.847656 -100.731C74.3006 -143.231 145.293 -167.726 226.614 -130.997C287.637 -103.424 336.05 -52.7424 379.799 -3.54819C445.358 70.1662 527.986 225.469 638.268 237.114C721.281 245.885 731.763 155.166 749.55 93.9168C777.05 -0.752523 826.565 -102.244 926.236 -138.768C1122.63 -210.764 1236.19 5.12108 1377.9 89.4796C1449.51 132.108 1543.1 161.296 1626.86 150.857C1739.06 136.853 1836.17 55.5977 1923 -9.93473" stroke="url(#paint18_linear_104_11962)" stroke-miterlimit="10"/>
<path d="M0.847656 -129.74C70.1999 -173.958 138.476 -204.737 220.412 -171.624C286.074 -145.078 338.357 -88.7277 383.464 -36.0709C447.947 39.208 529.037 193.767 643.599 196.486C725.279 198.41 740.4 106.382 759.673 44.9277C789.48 -50.0238 836.612 -142.128 941.153 -168.982C1141.34 -220.434 1252.49 -23.0413 1395.74 71.6536C1465.86 118.026 1559.38 156.269 1644.8 143.932C1756.52 127.773 1846.27 34.8477 1923.03 -39.6874" stroke="url(#paint19_linear_104_11962)" stroke-miterlimit="10"/>
<path d="M0.847656 -155.363C64.5103 -201.556 130.633 -240.26 211.596 -213.124C274.694 -191.989 324.389 -140.23 366.856 -91.1386C436.414 -10.7556 506.381 132.236 626.12 141.367C717.155 148.292 740.81 59.7527 767.003 -10.2939C802.73 -105.861 852.527 -186.783 961.938 -201.582C1155.9 -227.82 1267.67 -60.9244 1402.42 44.1326C1469.98 96.7894 1561.45 147.215 1649.85 138.597C1767.1 127.157 1853.39 18.0479 1923.03 -65.5925" stroke="url(#paint20_linear_104_11962)" stroke-miterlimit="10"/>
<path d="M0.847656 -175.574C64.2027 -219.818 129.531 -256.239 208.879 -230.385C270.671 -210.251 319.853 -160.775 361.807 -113.171C429.391 -36.5325 500.922 110.588 617.227 114.615C707.159 117.719 737.94 38.0026 770.181 -32.0697C811.521 -121.866 867.469 -204.07 973.573 -218.407C1160.74 -243.697 1277.66 -87.7786 1410.5 11.9435C1475.67 60.8556 1567.6 110.614 1651.31 108.972C1768.33 106.664 1855.01 -4.72814 1923.03 -86.0345" stroke="url(#paint21_linear_104_11962)" stroke-miterlimit="10"/>
<path d="M0.847656 -189.399C63.2032 -232.104 127.583 -267.525 205.368 -243.979C265.468 -225.794 313.932 -179.473 355.221 -134.126C421.728 -61.0527 492.951 84.5293 605.489 85.2218C693.73 85.7604 731.302 15.483 769.822 -52.9734C816.877 -136.588 878.643 -216.817 980.98 -230.873C1161.38 -255.624 1283.25 -115.787 1416.16 -22.7079C1480.7 22.4851 1571.63 72.9104 1651.49 80.0407C1767.92 90.4285 1856.01 -22.0667 1923 -100.449" stroke="url(#paint22_linear_104_11962)" stroke-miterlimit="10"/>
<path d="M0.847656 -197.965C60.6659 -238.875 124.61 -274.245 199.319 -255.265C263.007 -239.106 313.599 -190.912 356.964 -144.257C422.882 -73.3384 488.979 58.3932 599.107 53.4943C682.427 49.8009 724.895 -13.5 768.413 -75.8007C821.849 -152.336 886.358 -224.101 984.21 -238.003C1161.9 -263.267 1286.38 -142.385 1424.62 -56.1538C1488.49 -16.2957 1569.53 30.9748 1643.11 50.0318C1762.38 80.9128 1853.21 -30.9412 1923.03 -109.939" stroke="url(#paint23_linear_104_11962)" stroke-miterlimit="10"/>
<path d="M0.847656 -202.377C59.0256 -242.671 121.612 -278.81 195.09 -263.857C256.267 -251.392 305.987 -208.507 348.609 -165.443C415.449 -97.9355 477.676 23.3059 584.37 18.5609C665.307 14.9701 713.977 -38.3279 763.492 -95.7554C822.823 -164.545 891.304 -229.898 985.388 -243.594C1155.57 -268.371 1285.97 -171.727 1425.82 -94.832C1495.23 -56.6667 1568.22 -10.0118 1641.08 20.8693C1758.39 70.6021 1850.6 -37.0198 1923 -115.53" stroke="url(#paint24_linear_104_11962)" stroke-miterlimit="10"/>
<path d="M0.847656 -203.736C123.252 -290.583 229.126 -290.147 340.279 -187.167C408.529 -123.943 466.528 -15.4236 569.48 -19.117C647.777 -21.9384 702.213 -65.1308 757.392 -115.838C822.413 -175.574 894.046 -233.361 984.389 -246.8C1146.54 -270.936 1283.84 -201.043 1424.95 -134.741C1502.63 -98.2433 1565.48 -52.4603 1637.83 -8.06242C1752.08 62.0355 1845.35 -38.0458 1923.05 -118.198" stroke="url(#paint25_linear_104_11962)" stroke-miterlimit="10"/>
<path d="M0.847656 -203.146C114.769 -286.659 219.617 -302.869 332.437 -209.918C402.481 -152.208 456.43 -57.667 555.204 -59.6163C719.666 -62.8481 820.952 -224.05 981.698 -248.365C1135.68 -271.654 1280.33 -230.36 1421.95 -175.651C1508.53 -142.205 1563.04 -94.832 1633.27 -37.0455C1743.42 53.597 1837.04 -35.0705 1923.03 -119.121" stroke="url(#paint26_linear_104_11962)" stroke-miterlimit="10"/>
</g>
<defs>
<linearGradient id="paint0_linear_104_11962" x1="961.938" y1="328.861" x2="961.938" y2="582.655" gradientUnits="userSpaceOnUse">
<stop stop-color="#333333"/>
<stop offset="1" stop-color="#333333" stop-opacity="0"/>
</linearGradient>
<linearGradient id="paint1_linear_104_11962" x1="961.938" y1="287.197" x2="961.938" y2="571.293" gradientUnits="userSpaceOnUse">
<stop stop-color="#333333"/>
<stop offset="1" stop-color="#333333" stop-opacity="0"/>
</linearGradient>
<linearGradient id="paint2_linear_104_11962" x1="961.938" y1="246.397" x2="961.938" y2="560.325" gradientUnits="userSpaceOnUse">
<stop stop-color="#333333"/>
<stop offset="1" stop-color="#333333" stop-opacity="0"/>
</linearGradient>
<linearGradient id="paint3_linear_104_11962" x1="961.925" y1="209.147" x2="961.925" y2="548.924" gradientUnits="userSpaceOnUse">
<stop stop-color="#333333"/>
<stop offset="1" stop-color="#333333" stop-opacity="0"/>
</linearGradient>
<linearGradient id="paint4_linear_104_11962" x1="961.938" y1="173.476" x2="961.938" y2="537.208" gradientUnits="userSpaceOnUse">
<stop stop-color="#333333"/>
<stop offset="1" stop-color="#333333" stop-opacity="0"/>
</linearGradient>
<linearGradient id="paint5_linear_104_11962" x1="961.938" y1="139.304" x2="961.938" y2="524.902" gradientUnits="userSpaceOnUse">
<stop stop-color="#333333"/>
<stop offset="1" stop-color="#333333" stop-opacity="0"/>
</linearGradient>
<linearGradient id="paint6_linear_104_11962" x1="961.951" y1="105.449" x2="961.951" y2="511.387" gradientUnits="userSpaceOnUse">
<stop stop-color="#333333"/>
<stop offset="1" stop-color="#333333" stop-opacity="0"/>
</linearGradient>
<linearGradient id="paint7_linear_104_11962" x1="961.938" y1="81.8047" x2="961.938" y2="485.968" gradientUnits="userSpaceOnUse">
<stop stop-color="#333333"/>
<stop offset="1" stop-color="#333333" stop-opacity="0"/>
</linearGradient>
<linearGradient id="paint8_linear_104_11962" x1="961.951" y1="65.8782" x2="961.951" y2="452.949" gradientUnits="userSpaceOnUse">
<stop stop-color="#333333"/>
<stop offset="1" stop-color="#333333" stop-opacity="0"/>
</linearGradient>
<linearGradient id="paint9_linear_104_11962" x1="961.951" y1="50.0765" x2="961.951" y2="423.564" gradientUnits="userSpaceOnUse">
<stop stop-color="#333333"/>
<stop offset="1" stop-color="#333333" stop-opacity="0"/>
</linearGradient>
<linearGradient id="paint10_linear_104_11962" x1="961.925" y1="31.6479" x2="961.925" y2="397.719" gradientUnits="userSpaceOnUse">
<stop stop-color="#333333"/>
<stop offset="1" stop-color="#333333" stop-opacity="0"/>
</linearGradient>
<linearGradient id="paint11_linear_104_11962" x1="961.938" y1="13.5251" x2="961.938" y2="375.442" gradientUnits="userSpaceOnUse">
<stop stop-color="#333333"/>
<stop offset="1" stop-color="#333333" stop-opacity="0"/>
</linearGradient>
<linearGradient id="paint12_linear_104_11962" x1="961.951" y1="-6.93176" x2="961.951" y2="355.652" gradientUnits="userSpaceOnUse">
<stop stop-color="#333333"/>
<stop offset="1" stop-color="#333333" stop-opacity="0"/>
</linearGradient>
<linearGradient id="paint13_linear_104_11962" x1="961.951" y1="-27.804" x2="961.951" y2="339.626" gradientUnits="userSpaceOnUse">
<stop stop-color="#333333"/>
<stop offset="1" stop-color="#333333" stop-opacity="0"/>
</linearGradient>
<linearGradient id="paint14_linear_104_11962" x1="961.951" y1="-50.0615" x2="961.951" y2="325.007" gradientUnits="userSpaceOnUse">
<stop stop-color="#333333"/>
<stop offset="1" stop-color="#333333" stop-opacity="0"/>
</linearGradient>
<linearGradient id="paint15_linear_104_11962" x1="961.951" y1="-75.2069" x2="961.951" y2="310.063" gradientUnits="userSpaceOnUse">
<stop stop-color="#333333"/>
<stop offset="1" stop-color="#333333" stop-opacity="0"/>
</linearGradient>
<linearGradient id="paint16_linear_104_11962" x1="961.938" y1="-102.107" x2="961.938" y2="292.385" gradientUnits="userSpaceOnUse">
<stop stop-color="#333333"/>
<stop offset="1" stop-color="#333333" stop-opacity="0"/>
</linearGradient>
<linearGradient id="paint17_linear_104_11962" x1="961.951" y1="-127.716" x2="961.951" y2="268.644" gradientUnits="userSpaceOnUse">
<stop stop-color="#333333"/>
<stop offset="1" stop-color="#333333" stop-opacity="0"/>
</linearGradient>
<linearGradient id="paint18_linear_104_11962" x1="961.925" y1="-153.23" x2="961.925" y2="237.705" gradientUnits="userSpaceOnUse">
<stop stop-color="#333333"/>
<stop offset="1" stop-color="#333333" stop-opacity="0"/>
</linearGradient>
<linearGradient id="paint19_linear_104_11962" x1="961.938" y1="-185.544" x2="961.938" y2="196.516" gradientUnits="userSpaceOnUse">
<stop stop-color="#333333"/>
<stop offset="1" stop-color="#333333" stop-opacity="0"/>
</linearGradient>
<linearGradient id="paint20_linear_104_11962" x1="961.938" y1="-222.109" x2="961.938" y2="141.749" gradientUnits="userSpaceOnUse">
<stop stop-color="#333333"/>
<stop offset="1" stop-color="#333333" stop-opacity="0"/>
</linearGradient>
<linearGradient id="paint21_linear_104_11962" x1="961.938" y1="-239.004" x2="961.938" y2="114.703" gradientUnits="userSpaceOnUse">
<stop stop-color="#333333"/>
<stop offset="1" stop-color="#333333" stop-opacity="0"/>
</linearGradient>
<linearGradient id="paint22_linear_104_11962" x1="961.925" y1="-251.508" x2="961.925" y2="85.2249" gradientUnits="userSpaceOnUse">
<stop stop-color="#333333"/>
<stop offset="1" stop-color="#333333" stop-opacity="0"/>
</linearGradient>
<linearGradient id="paint23_linear_104_11962" x1="961.938" y1="-260.532" x2="961.938" y2="55.2906" gradientUnits="userSpaceOnUse">
<stop stop-color="#333333"/>
<stop offset="1" stop-color="#333333" stop-opacity="0"/>
</linearGradient>
<linearGradient id="paint24_linear_104_11962" x1="961.925" y1="-267.303" x2="961.925" y2="33.5222" gradientUnits="userSpaceOnUse">
<stop stop-color="#333333"/>
<stop offset="1" stop-color="#333333" stop-opacity="0"/>
</linearGradient>
<linearGradient id="paint25_linear_104_11962" x1="961.951" y1="-266.78" x2="961.951" y2="15.6316" gradientUnits="userSpaceOnUse">
<stop stop-color="#333333"/>
<stop offset="1" stop-color="#333333" stop-opacity="0"/>
</linearGradient>
<linearGradient id="paint26_linear_104_11962" x1="961.938" y1="-272.985" x2="961.938" y2="1.08597" gradientUnits="userSpaceOnUse">
<stop stop-color="#333333"/>
<stop offset="1" stop-color="#333333" stop-opacity="0"/>
</linearGradient>
<clipPath id="clip0_104_11962">
<rect width="1924" height="1286" fill="white" transform="translate(0 -571)"/>
</clipPath>
</defs>
</svg>
