<svg width="58" height="58" viewBox="0 0 58 58" fill="none" xmlns="http://www.w3.org/2000/svg">
<rect x="0.5" y="0.5" width="57" height="57" rx="28.5" fill="#1A1A1A"/>
<rect x="0.5" y="0.5" width="57" height="57" rx="28.5" stroke="#262626"/>
<path fill-rule="evenodd" clip-rule="evenodd" d="M18.5 29C18.5 28.3787 19.0037 27.875 19.625 27.875L35.5819 27.875L29.3453 21.9359C28.8974 21.5053 28.8834 20.7931 29.3141 20.3452C29.7447 19.8974 30.4569 19.8834 30.9047 20.3141L39.1547 28.1891C39.3753 28.4012 39.5 28.694 39.5 29C39.5 29.306 39.3753 29.5988 39.1547 29.8109L30.9047 37.6859C30.4569 38.1166 29.7447 38.1026 29.3141 37.6547C28.8834 37.2069 28.8974 36.4947 29.3453 36.0641L35.5819 30.125L19.625 30.125C19.0037 30.125 18.5 29.6213 18.5 29Z" fill="white"/>
</svg>
