<svg width="1919" height="1281" viewBox="0 0 1919 1281" fill="none" xmlns="http://www.w3.org/2000/svg">
<g style="mix-blend-mode:color-dodge">
<path d="M0.330566 1279.9C639.674 1277.19 1279.17 1275.99 1918.51 1279.9" stroke="#666666" stroke-miterlimit="10"/>
<path d="M0.330566 1254.41C185.423 1242.04 373.353 1237.82 558.701 1247.59C634.405 1251.57 710.314 1253.54 786.044 1249.35C868.629 1244.77 947.249 1226.52 1028.73 1215.37C1173.65 1195.53 1320.58 1242.14 1464.88 1249.91C1616.87 1258.12 1766.13 1236.8 1918.51 1256.23" stroke="#666666" stroke-miterlimit="10"/>
<path d="M0.330566 1225.93C192.584 1204.68 391.845 1200.79 584.558 1219.87C661.823 1227.51 739.727 1231.55 817.119 1223.45C908.45 1213.91 987.709 1178.78 1075.59 1157.33C1222.37 1121.51 1367.28 1208.49 1511.37 1222.63C1574.62 1228.84 1637.23 1215.27 1700.33 1211.2C1774.93 1206.37 1846.11 1214.06 1918.51 1232.55" stroke="#666666" stroke-miterlimit="10"/>
<path d="M0.330566 1195.04C198.492 1166.33 402.228 1169.86 600.543 1196.47C678.575 1206.93 756.658 1212.68 834.869 1200.56C875.56 1194.25 915.253 1183.64 954.077 1169.96C1006.87 1151.37 1055.54 1117.21 1107.89 1100.13C1254.82 1052.19 1394.26 1174.51 1533.6 1196.37C1597.54 1206.39 1655.88 1185.61 1718.87 1178.42C1789.02 1170.42 1852.91 1184.12 1918.54 1208.9" stroke="#666666" stroke-miterlimit="10"/>
<path d="M0.330566 1162.21C194.323 1128.23 392.51 1138.87 585.812 1173.26C669.7 1188.19 753.717 1198.03 838.117 1180.9C945.279 1159.14 1024.31 1094.73 1122.42 1053.57C1281.52 986.808 1408.23 1148.76 1556.64 1173.38C1615.24 1183.1 1663.55 1158.3 1719.64 1147.48C1791.63 1133.6 1853.83 1154.03 1918.51 1185.25" stroke="#666666" stroke-miterlimit="10"/>
<path d="M0.330566 1127.97C194.476 1088.14 384.914 1111.71 576.195 1154.85C660.339 1173.82 744.714 1184.2 829.6 1163.21C873.667 1152.32 915.304 1134.55 955.51 1113.68C1015.69 1082.46 1068.94 1030.3 1129.32 1002.41C1291.63 927.412 1407.43 1116.52 1551.81 1147.92C1617.51 1162.21 1661.22 1130.81 1721.81 1115.39C1793.83 1097.09 1856.62 1126.62 1918.51 1161.57" stroke="#666666" stroke-miterlimit="10"/>
<path d="M0.330566 1092.87C190.64 1047.69 365.195 1085.4 549.596 1135.59C635.224 1158.89 720.801 1172.98 807.988 1148.81C854.127 1136.03 897.069 1114.96 938.297 1090.95C1002.9 1053.34 1058.63 993.38 1123.67 959.271C1294.49 869.703 1395.8 1089.31 1543.42 1124.29C1612.81 1140.73 1653.45 1103.04 1715.24 1083.59C1790.02 1060.04 1856.49 1099.16 1918.49 1137.9" stroke="#666666" stroke-miterlimit="10"/>
<path d="M0.330566 1057.38C182.072 1007.31 336.422 1056.76 508.649 1113.37C594.072 1141.45 679.265 1162.47 768.295 1139.45C903.744 1104.45 992.032 997.931 1105.87 926.159C1290.73 809.641 1373.11 1069.11 1534.39 1102.15C1604.21 1116.47 1643.7 1071.95 1705.42 1050.45C1783.58 1023.22 1855.73 1072.26 1918.51 1114.17" stroke="#666666" stroke-miterlimit="10"/>
<path d="M0.330566 1022.07C176.676 965.126 312.074 1029.12 474.02 1092.56C561.463 1126.8 649.904 1154.57 743.077 1126.26C881.212 1084.3 971.239 970.01 1085.43 890.516C1279.58 755.384 1343.32 1044.13 1510.07 1078.09C1581.04 1092.54 1624.85 1043.14 1685.62 1019.03C1771.45 984.967 1850.25 1042.93 1918.51 1090.57" stroke="#666666" stroke-miterlimit="10"/>
<path d="M0.330566 987.396C79.3342 957.302 156.445 950.373 238.16 974.663C313.608 997.087 378.392 1042.37 449.595 1074.41C533.688 1112.25 620.083 1145.44 712.105 1115.29C858.27 1067.4 946.251 937.358 1065.54 851.089C1258.68 711.38 1314.87 1009.18 1473.44 1049.35C1553.73 1069.68 1600.25 1010.74 1668.51 983.791C1760.76 947.356 1846.95 1015.37 1918.51 1066.89" stroke="#666666" stroke-miterlimit="10"/>
<path d="M0.330566 953.927C71.4313 921.736 142.276 911.713 217.367 936.872C291.332 961.649 351.409 1013.81 419.543 1049.91C498.803 1091.92 580.364 1134.09 671.567 1107.19C824.485 1062.13 920.471 916.085 1039.14 821.582C1241.5 660.421 1275.08 984.507 1440.86 1021.81C1525.93 1040.96 1578.89 972.618 1651.94 945.975C1750.2 910.153 1844.45 988.419 1918.49 1043.19" stroke="#666666" stroke-miterlimit="10"/>
<path d="M0.330566 922.145C164.655 833.932 263.352 938.279 397.19 1022.6C473.201 1070.5 555.044 1125.9 648.191 1095.07C799.037 1045.13 898.271 894.991 1012.62 795.144C1086.43 730.71 1157.1 715.752 1220.32 797.266C1275.16 867.939 1310.37 969.728 1407.95 990.209C1492.91 1008.03 1552.91 938.074 1625.8 909.565C1733.06 867.581 1839.26 959.373 1918.51 1019.54" stroke="#666666" stroke-miterlimit="10"/>
<path d="M0.330566 892.587C159.489 792.587 258.672 896.422 384.198 990.669C451.155 1040.94 526.962 1110.56 617.423 1086.96C672.488 1072.59 721.312 1031.76 763.359 995.706C844.178 926.44 911.263 844.722 987.991 771.544C1061.55 701.382 1134.05 673.768 1197.12 766.328C1244.13 835.312 1280.19 941.884 1374.7 956.944C1464.54 971.262 1530.3 894.198 1609.1 867.555C1722.76 829.099 1837.34 932.449 1918.51 995.809" stroke="#666666" stroke-miterlimit="10"/>
<path d="M0.330566 865.791C62.3774 821.173 130.844 793.175 206.446 820.355C273.761 844.568 326.089 900.82 377.829 947.688C436.142 1000.51 509.8 1094.3 599.316 1075.86C649.7 1065.48 694.023 1026.93 731.67 994.096C814.766 921.608 887.606 837.639 962.313 756.867C1032.24 681.234 1109.73 626.824 1174.95 732.091C1218.86 802.942 1252.96 915.011 1352.55 918.948C1440.94 922.451 1507.36 851.881 1587.03 825.852C1709.23 785.939 1833.19 903.249 1918.54 972.157" stroke="#666666" stroke-miterlimit="10"/>
<path d="M0.330566 841.193C64.0143 791.59 134.962 758.657 215.397 787.243C283.276 811.355 339.491 866.328 389.671 915.752C441.845 967.171 511.872 1068.17 597.295 1050.94C645.096 1041.3 687.143 1002.66 722.386 971.314C802.976 899.593 874.946 817.823 947.76 738.483C1014.44 665.842 1092.75 599.618 1158.89 704.4C1202.16 772.95 1235.03 882.359 1332.75 883.715C1420.37 884.916 1493.45 821.326 1575.26 799.542C1702.6 765.612 1827.06 876.836 1918.51 947.893" stroke="#666666" stroke-miterlimit="10"/>
<path d="M0.330566 813.783C70.5873 758.529 145.55 728.818 231.433 767.171C302.457 798.902 364.658 858.938 419.62 912.096C468.93 959.808 530.031 1040.32 607.781 1015.24C655.224 999.925 696.478 959.015 731.875 926.133C802.822 860.242 868.756 788.879 935.688 718.974C999.474 652.316 1076.87 587.473 1145.44 680.416C1194.21 746.537 1225.26 852.29 1322.62 857.123C1409.35 861.418 1493.21 804.221 1576.82 788.879C1703.27 765.663 1820.87 852.802 1918.54 919.946" stroke="#666666" stroke-miterlimit="10"/>
<path d="M0.330566 783.331C75.8814 725.699 152.865 700.36 241.127 745.873C308.749 780.723 371.154 836.847 426.781 888.061C478.623 935.799 542.282 1018.05 620.62 981.644C661.516 962.646 695.174 926.466 727.297 895.86C794.868 831.426 858.782 763.106 924.767 697.087C993.029 628.793 1070.37 575.839 1141.19 666.634C1189.94 729.151 1225.05 827.565 1317.48 831.656C1402.52 835.441 1487 794.709 1569.99 781.158C1698.1 760.242 1811.84 825.545 1918.54 888.47" stroke="#666666" stroke-miterlimit="10"/>
<path d="M0.330566 750.398C87.4673 687.55 170.589 673.333 263.378 731.81C330.054 773.819 391.691 830.736 451.36 882.052C501.181 924.906 557.218 992.178 626.937 953.211C664.278 932.347 695.353 895.144 725.097 865.049C788.423 800.948 850.086 735.287 915.253 673.027C982.773 608.516 1060.06 561.955 1131.93 643.469C1185.59 704.323 1222.75 801.383 1314.95 810.178C1396.21 817.926 1484.75 786.169 1564.67 773.794C1692.4 754.029 1804.78 799.158 1918.49 854.259" stroke="#666666" stroke-miterlimit="10"/>
<path d="M0.330566 715.599C94.7308 652.111 181.535 645.31 276.14 711.738C347.522 761.853 411.666 825.187 479.544 880.109C526.22 917.849 577.857 969.6 636.196 926.236C674.764 897.573 706.248 854.387 738.269 819.204C792.413 759.756 847.912 701.101 907.478 647.049C980.471 580.799 1059.63 549.503 1133.13 629.355C1186.94 687.805 1228.17 779.035 1316.59 788.93C1400.27 798.289 1490.76 776.325 1573.65 764.947C1695.54 748.225 1804.04 775.456 1918.51 817.823" stroke="#666666" stroke-miterlimit="10"/>
<path d="M0.330566 679.47C107.953 612.198 199.438 619.358 298.237 698.212C373.2 758.043 437.088 827.667 515.222 884.124C568.829 922.835 607.474 944.696 656.401 890.746C739.548 799.056 806.889 694.556 904.307 615.497C975.817 557.481 1054.49 535.849 1125.74 603.377C1185.95 660.421 1226.46 747.995 1313.37 768.552C1393.6 787.499 1494.29 768.808 1574.96 757.813C1694.01 741.577 1801.45 751.114 1918.54 779.956" stroke="#666666" stroke-miterlimit="10"/>
<path d="M0.330566 642.625C120.844 572.336 218.978 595.169 320.591 685.146C393.379 749.605 453.917 824.241 536.527 877.194C597.167 916.085 629.086 922.963 670.57 861.035C736.3 762.927 802.464 662.646 898.22 590.286C975.638 531.758 1054.08 518.616 1129.73 586.092C1192.73 642.293 1237.56 732.704 1326.64 752.597C1405.64 770.24 1497.84 761.853 1577.49 751.012C1693.12 735.261 1801.74 728.153 1918.54 741.168" stroke="#666666" stroke-miterlimit="10"/>
<path d="M0.330566 605.653C131.688 533.165 234.451 568.884 338.57 668.066C412.254 738.253 472.997 823.986 563.714 873.743C631.055 910.69 654.687 891.488 686.81 828.153C737.911 727.437 802.541 625.647 897.197 560.038C977.326 504.476 1058.38 502.763 1133.64 566.609C1199.3 622.323 1247.12 710.383 1335.08 735.082C1523.73 788.061 1729.02 708.874 1918.54 702.303" stroke="#666666" stroke-miterlimit="10"/>
<path d="M0.330566 569.115C65.6767 534.315 127.11 513.656 200.231 538.994C260.718 559.961 310.258 603.965 354.632 648.787C427.83 722.784 490.414 822.349 587.934 866.328C661.081 899.312 678.396 854.873 703.077 792.868C743.307 691.718 804.05 588.087 898.961 528.869C1105.82 399.772 1180.47 660.984 1345.05 717.619C1537.26 783.766 1730.58 700.309 1918.54 663.924" stroke="#666666" stroke-miterlimit="10"/>
<path d="M0.330566 533.599C68.49 497.547 131.304 477.45 205.755 504.834C268.211 527.795 318.698 574.714 363.942 622.247C435.093 696.985 508.675 826.364 614.814 856.126C689.112 876.964 700.826 807.468 719.65 751.523C752.591 653.594 809.369 545.617 904.358 493.814C1101.55 386.271 1200.86 628.077 1349.73 696.422C1545.06 786.092 1734.19 694.147 1918.51 626.696" stroke="#666666" stroke-miterlimit="10"/>
<path d="M0.330566 499.72C69.155 462.288 131.151 441.96 206.906 468.475C269.72 490.465 321.051 539.531 365.706 587.345C438.162 664.947 515.836 812.352 628.497 834.341C705.071 849.299 715.813 772.822 732.54 715.394C761.261 616.877 812.976 507.826 912.235 462.006C1109.71 370.853 1216.2 602.993 1361.86 678.064C1437.69 717.133 1535.88 737.153 1620.35 723.551C1727.44 706.317 1825.37 642.881 1918.54 591.411" stroke="#666666" stroke-miterlimit="10"/>
<path d="M0.330566 468.015C73.6308 425.647 144.476 401.229 225.628 437.844C286.524 465.33 334.836 515.855 378.494 564.896C443.917 638.381 526.373 793.201 636.426 804.809C719.266 813.553 729.726 723.116 747.476 662.058C774.919 567.683 824.331 466.507 923.796 430.096C1119.78 358.324 1233.11 573.538 1374.52 657.634C1445.98 700.13 1539.38 729.227 1622.96 718.821C1734.93 704.86 1831.84 623.858 1918.49 558.529" stroke="#666666" stroke-miterlimit="10"/>
<path d="M0.330566 439.097C69.5386 395.016 137.673 364.333 219.438 397.343C284.964 423.806 337.138 479.981 382.151 532.474C446.5 607.519 527.422 761.597 641.746 764.308C723.256 766.225 738.346 674.484 757.579 613.221C787.323 518.565 834.357 426.747 938.681 399.976C1138.45 348.685 1249.38 545.463 1392.32 639.864C1462.29 686.092 1555.62 724.216 1640.86 711.917C1752.35 695.809 1841.92 603.172 1918.51 528.869" stroke="#666666" stroke-miterlimit="10"/>
<path d="M0.330566 413.553C63.8608 367.504 129.846 328.92 210.64 355.972C273.608 377.041 323.199 428.639 365.578 477.578C434.991 557.711 504.813 700.257 624.303 709.36C715.148 716.264 738.755 628 764.893 558.171C800.546 462.901 850.24 382.231 959.423 367.478C1152.98 341.321 1264.52 507.698 1398.99 612.428C1466.41 664.921 1557.69 715.19 1645.9 706.599C1762.91 695.195 1849.03 586.425 1918.51 503.044" stroke="#666666" stroke-miterlimit="10"/>
<path d="M0.330566 393.405C63.5539 349.299 128.747 312.991 207.929 338.764C269.592 358.836 318.672 408.158 360.54 455.614C427.983 532.014 499.365 678.677 615.428 682.692C705.174 685.786 735.89 606.317 768.065 536.463C809.318 446.946 865.15 364.998 971.034 350.705C1157.81 325.494 1274.49 480.927 1407.05 580.339C1472.09 629.099 1563.83 678.703 1647.36 677.067C1764.14 674.765 1850.64 563.72 1918.51 482.666" stroke="#666666" stroke-miterlimit="10"/>
<path d="M0.330566 379.623C62.5565 337.051 126.803 301.74 204.425 325.213C264.401 343.341 312.764 389.519 353.967 434.724C420.336 507.57 491.411 652.699 603.715 653.39C691.772 653.927 729.266 583.868 767.707 515.624C814.664 432.27 876.301 352.29 978.425 338.278C1158.45 313.604 1280.07 453.006 1412.7 545.796C1477.1 590.848 1567.85 641.117 1647.54 648.225C1763.73 658.58 1851.63 546.435 1918.49 468.296" stroke="#666666" stroke-miterlimit="10"/>
<path d="M0.330566 371.083C60.0245 330.301 123.836 295.041 198.389 313.962C261.945 330.071 312.432 378.115 355.706 424.625C421.487 495.323 487.447 626.645 597.346 621.761C680.493 618.079 722.872 554.975 766.3 492.868C819.625 416.57 884 345.029 981.648 331.17C1158.96 305.985 1283.19 426.491 1421.14 512.454C1484.88 552.188 1565.75 599.311 1639.18 618.309C1758.21 649.094 1848.85 537.588 1918.51 458.836" stroke="#666666" stroke-miterlimit="10"/>
<path d="M0.330566 366.685C58.3876 326.517 120.844 290.49 194.169 305.397C255.219 317.823 304.836 360.574 347.368 403.505C414.07 470.802 476.168 591.666 582.64 586.936C663.408 583.356 711.977 530.224 761.389 472.975C820.597 404.4 888.936 339.25 982.825 325.596C1152.65 300.897 1282.78 397.24 1422.34 473.896C1491.6 511.942 1564.44 558.452 1637.16 589.237C1754.22 638.815 1846.24 531.528 1918.49 453.262" stroke="#666666" stroke-miterlimit="10"/>
<path d="M0.330566 365.33C122.481 278.754 228.134 279.189 339.056 381.848C407.165 444.875 465.043 553.057 567.781 549.375C645.915 546.563 700.238 503.505 755.302 452.955C820.188 393.405 891.672 335.798 981.827 322.4C1143.65 298.34 1280.65 368.015 1421.47 434.111C1498.99 470.495 1561.71 516.136 1633.91 560.396C1747.92 630.275 1840.99 530.505 1918.54 450.603" stroke="#666666" stroke-miterlimit="10"/>
<path d="M0.330566 365.918C114.015 282.666 218.646 266.506 331.23 359.168C401.129 416.698 454.966 510.945 553.535 509.002C717.655 505.78 818.73 345.08 979.142 320.84C1132.8 297.624 1277.15 338.79 1418.48 393.328C1504.88 426.67 1559.28 473.896 1629.35 531.503C1739.28 621.863 1832.71 533.471 1918.51 449.682" stroke="#666666" stroke-miterlimit="10"/>
<path d="M0.330566 367.35C104.296 288.138 208.108 254.591 321.665 333.062C391.87 381.567 443.354 462.62 534.072 465.739C697.194 471.39 818.577 343.648 975.126 319.229C1117.97 296.959 1270.63 309.309 1408.43 350.628C1506.54 380.058 1556.64 433.574 1625.8 505.013C1651.63 531.707 1680.69 559.501 1719.48 563.694C1796.67 572.004 1868.87 495.527 1918.51 449.605" stroke="#666666" stroke-miterlimit="10"/>
<path d="M0.330566 368.526C97.0582 291.871 200.384 243.162 316.473 307.34C388.29 347.048 438.239 414.448 523.893 419.434C683.255 428.716 817.503 343.341 970.804 319.536C1108.32 298.186 1264.16 280.39 1401.5 309.846C1507.15 332.5 1554.67 395.681 1618.72 476.427C1643.24 507.366 1671.02 542.957 1711.56 552.674C1789.87 571.441 1867.13 494.3 1918.49 449.324" stroke="#666666" stroke-miterlimit="10"/>
<path d="M0.330566 368.322C94.7308 290.592 199.643 230.429 321.179 282.282C387.446 310.562 436.756 362.39 510.491 369.6C668.958 385.121 813.052 343.009 967.786 320.303C1049.32 308.337 1129.66 296.473 1210.5 280.186C1273.34 267.529 1334.41 260.958 1398.3 270.112C1508.69 285.913 1555.31 364.768 1612.55 450.679C1635.47 485.07 1663.01 527.77 1704.65 541.449C1784.45 567.683 1864.04 493.021 1918.51 447.688" stroke="#666666" stroke-miterlimit="10"/>
<path d="M0.330566 365.663C91.2525 288.393 196.216 216.8 320.488 249.912C386.372 267.478 439.544 308.337 508.01 316.979C664.201 336.667 808.909 341.142 964.973 319.408C1047.61 307.902 1125.08 290.95 1203.9 263.643C1264.59 242.625 1322.83 225.392 1387.89 229.994C1503.75 238.176 1550.81 331.324 1603.11 421.786C1625.39 460.319 1652.3 509.897 1695.47 528.639C1776.8 563.95 1860.61 489.749 1918.57 443.801" stroke="#666666" stroke-miterlimit="10"/>
<path d="M0.330566 359.449C89.9737 281.464 194.528 201.817 320.284 213.886C387.804 220.355 449.595 252.265 516.629 262.134C669.854 284.712 804.638 336.233 962.031 317.031C1045.31 306.854 1120.14 285.121 1195.18 247.943C1251.7 219.945 1305.57 191.615 1370.32 190.797C1496.21 189.263 1543.75 299.184 1594.44 396.141C1616.34 438.023 1642.65 492.51 1687.26 514.96C1770.02 556.637 1857.29 483.229 1918.51 436.514" stroke="#666666" stroke-miterlimit="10"/>
<path d="M0.330566 348.583C91.8152 268.066 196.65 183.228 323.634 174.842C392.1 170.316 464.173 190.669 530.798 204.476C680.647 235.517 805.405 329.943 964.538 312.761C1046.35 303.939 1118.61 277.322 1187.2 232.423C1242.55 196.192 1293.26 157.353 1361.99 153.338C1490.61 145.847 1537.72 273.512 1584.65 370.393C1606.95 416.391 1632.55 472.029 1678.54 499.26C1761.12 548.148 1856.34 470.904 1918.51 424.88" stroke="#666666" stroke-miterlimit="10"/>
<path d="M0.330566 331.912C156.88 194.453 321.869 88.47 534.992 139.966C686.708 176.632 803.564 319.229 968.17 305.78C1051.57 298.953 1121.83 265.484 1185.28 212.479C1234.98 170.981 1279.25 125.468 1347.05 118.13C1476.36 104.144 1523.75 234.903 1568.08 331.656C1592.27 384.456 1618.46 450.5 1670.97 481.95C1755.62 532.653 1853.94 454.745 1918.49 407.8" stroke="#666666" stroke-miterlimit="10"/>
<path d="M0.330566 309.258C150.972 180.595 344.76 38.2782 555.504 97.2913C703.435 138.713 815.201 296.448 977.786 288.112C1059.09 283.944 1128.17 245.003 1185.56 189.825C1231.09 146.077 1271.78 96.7288 1338.74 89.3138C1462.78 75.5321 1513.27 204.604 1556.98 296.371C1583.14 351.267 1610.56 418.462 1664.37 452.239C1750.53 506.317 1850.05 432.474 1918.49 384.814" stroke="#666666" stroke-miterlimit="10"/>
<path d="M0.330566 285.581C151.509 162.39 349.977 26.3631 557.397 77.4498C709.854 114.985 830.623 271.518 995.689 260.804C1070.5 255.946 1133.18 219.613 1185.72 168.373C1227.64 127.488 1264.39 80.9016 1325.59 70.9042C1447.66 50.9604 1507.97 183.28 1555.34 271.032C1582.55 321.403 1612.07 379.777 1661.45 412.275C1747.82 469.114 1845.01 406.189 1918.51 358.887" stroke="#666666" stroke-miterlimit="10"/>
<path d="M0.330566 261.904C154.374 143.06 362.509 11.6355 568.394 64.0006C718.089 102.073 846.224 244.952 1007.76 236.182C1076.64 232.449 1136.94 195.757 1185.1 149.068C1223.7 111.661 1258.05 67.0945 1313.49 55.3583C1433.65 29.9428 1502.75 163.285 1555.08 246.537C1586.54 296.576 1619.43 351.651 1673.45 379.956C1758.92 424.727 1843.94 375.302 1918.51 331.042" stroke="#666666" stroke-miterlimit="10"/>
<path d="M0.330566 238.227C159.31 123.09 372.509 2.17489 578.19 53.1082C726.453 89.8251 860.035 222.119 1019.09 211.252C1083.16 206.88 1137.92 174.688 1183.7 131.656C1222.19 95.4759 1256.77 51.3695 1311.75 41.2186C1426 20.0987 1500.43 145.31 1556.18 222.886C1588.18 267.401 1622.09 312.812 1670.86 339.787C1755.72 386.68 1841.25 343.75 1918.51 301.612" stroke="#666666" stroke-miterlimit="10"/>
<path d="M0.330566 214.55C160.409 106.777 366.959 2.73741 567.678 40.5538C723.026 69.8302 863.411 199.618 1026.56 188.189C1088.43 183.842 1141.11 152.29 1186.18 111.738C1223.03 78.5492 1256.51 40.2981 1307.59 30.6587C1413.32 10.6893 1492.04 118.539 1550.15 189.007C1588.18 235.159 1629.74 285.811 1686.64 309.411C1767.11 342.778 1846.31 307.135 1918.54 270.981" stroke="#666666" stroke-miterlimit="10"/>
<path d="M0.330566 190.873C164.399 89.4672 375.22 -3.57812 574.072 34.4429C725.66 63.438 872.951 178.6 1031.5 166.915C1146.64 158.427 1196.89 45.5909 1300.68 22.7323C1405.03 -0.22859 1489.99 101.382 1554.14 167.146C1592.7 206.701 1632.96 248.25 1685.03 269.728C1765.65 302.968 1843.88 273.487 1918.49 239.48" stroke="#666666" stroke-miterlimit="10"/>
<path d="M0.330566 167.197C168.722 73.0776 375.553 -3.32237 572.538 28.3575C725.353 52.9293 875.355 157.327 1033.59 145.489C1142.29 137.358 1200.4 35.9771 1300.73 16.3146C1398.56 -2.83655 1482.73 77.8334 1549.92 136.77C1591.4 173.18 1634.09 211.38 1686.34 231.605C1766.36 262.594 1842.91 238.815 1918.54 207.545" stroke="#666666" stroke-miterlimit="10"/>
<path d="M0.330566 143.52C171.254 58.8357 375.783 -3.70587 569.213 23.8574C722.13 45.6421 875.688 135.952 1032.62 124.573C1136.92 117.005 1204.39 29.0479 1302.88 11.1497C1400.04 -6.51845 1488.53 66.3785 1561.2 119.639C1600.66 148.557 1641.78 177.808 1688.33 194.274C1768.56 222.656 1841.79 203.939 1918.51 175.507" stroke="#666666" stroke-miterlimit="10"/>
<path d="M0.330566 119.843C173.069 46 374.735 -3.45027 564.353 19.9709C717.527 38.8919 872.516 114.397 1028.61 104.067C1131.04 97.2913 1209.35 23.7295 1308.17 7.69778C1399.38 -7.08106 1485.36 47.9433 1559.99 92.74C1681.3 165.56 1781.4 188.547 1918.51 143.673" stroke="#666666" stroke-miterlimit="10"/>
<path d="M0.330566 96.1663C174.092 34.4685 365.374 0.487383 550.415 16.11C706.785 29.3291 862.286 91.0525 1020.27 83.1261C1126.23 77.8078 1217.02 15.0617 1321.32 4.425C1407.48 -4.37071 1488.82 34.7753 1564.62 70.5718C1686.21 128.025 1786.44 149.708 1918.51 112.505" stroke="#666666" stroke-miterlimit="10"/>
<path d="M0.330566 72.4894C177.213 23.4482 366.064 0.615202 549.724 13.6298C703 24.4966 856.864 70.1371 1011.16 63.5147C1119.53 58.8612 1220.65 12.786 1328.17 3.32551C1418.66 -4.62643 1503.62 26.9256 1587.77 56.023C1700.79 95.1179 1800.38 109.667 1918.51 82.359" stroke="#666666" stroke-miterlimit="10"/>
<path d="M0.330566 48.8382C174.63 15.0872 355.195 1.76579 532.716 9.69215C687.296 16.5958 841.697 46.8694 996.712 42.7783C1115.38 39.6589 1231.17 8.03017 1349.58 1.86806C1434.08 -2.52979 1515.77 16.9282 1597.54 35.8236C1706.44 60.9834 1807.39 72.694 1918.51 53.5428" stroke="#666666" stroke-miterlimit="10"/>
<path d="M0.330566 25.1614C173.248 7.26314 347.931 1.76582 521.744 5.67786C674.559 9.12967 827.298 24.3432 980.241 22.2977C1110.32 20.559 1239.73 4.29714 1369.76 1.07546C1554.19 -3.50138 1733.52 45.0796 1918.51 26.4654" stroke="#666666" stroke-miterlimit="10"/>
<path d="M0.330566 1.48457C639.7 -2.04394 1279.15 5.34548 1918.51 1.48457" stroke="#666666" stroke-miterlimit="10"/>
</g>
</svg>
