<svg width="58" height="58" viewBox="0 0 58 58" fill="none" xmlns="http://www.w3.org/2000/svg">
<rect x="0.5" y="0.5" width="57" height="57" rx="28.5" stroke="#262626"/>
<path fill-rule="evenodd" clip-rule="evenodd" d="M39.5 29C39.5 29.6213 38.9963 30.125 38.375 30.125L22.4181 30.125L28.6547 36.0641C29.1026 36.4947 29.1166 37.2069 28.6859 37.6548C28.2553 38.1026 27.5431 38.1166 27.0953 37.6859L18.8453 29.8109C18.6247 29.5988 18.5 29.306 18.5 29C18.5 28.694 18.6247 28.4012 18.8453 28.1891L27.0953 20.3141C27.5431 19.8834 28.2553 19.8974 28.6859 20.3453C29.1166 20.7931 29.1026 21.5053 28.6547 21.9359L22.4181 27.875L38.375 27.875C38.9963 27.875 39.5 28.3787 39.5 29Z" fill="#808080"/>
</svg>
