<svg width="74" height="74" viewBox="0 0 74 74" fill="none" xmlns="http://www.w3.org/2000/svg">
<rect x="0.5" y="0.5" width="73" height="73" rx="36.5" fill="#141414"/>
<rect x="0.5" y="0.5" width="73" height="73" rx="36.5" stroke="#703BF7"/>
<path fill-rule="evenodd" clip-rule="evenodd" d="M31.6875 29.5625C31.6875 26.6285 34.066 24.25 37 24.25C39.934 24.25 42.3125 26.6285 42.3125 29.5625C42.3125 32.4965 39.934 34.875 37 34.875C34.066 34.875 31.6875 32.4965 31.6875 29.5625Z" fill="#A685FA"/>
<path fill-rule="evenodd" clip-rule="evenodd" d="M42.3125 33.8125C42.3125 31.4653 44.2153 29.5625 46.5625 29.5625C48.9097 29.5625 50.8125 31.4653 50.8125 33.8125C50.8125 36.1597 48.9097 38.0625 46.5625 38.0625C44.2153 38.0625 42.3125 36.1597 42.3125 33.8125Z" fill="#A685FA"/>
<path fill-rule="evenodd" clip-rule="evenodd" d="M23.1875 33.8125C23.1875 31.4653 25.0903 29.5625 27.4375 29.5625C29.7847 29.5625 31.6875 31.4653 31.6875 33.8125C31.6875 36.1597 29.7847 38.0625 27.4375 38.0625C25.0903 38.0625 23.1875 36.1597 23.1875 33.8125Z" fill="#A685FA"/>
<path fill-rule="evenodd" clip-rule="evenodd" d="M28.939 41.4165C30.6361 38.7629 33.6118 37 37 37C40.3886 37 43.3646 38.7633 45.0617 41.4175C46.2349 43.2524 46.7425 45.4649 46.5044 47.6221C46.4672 47.9592 46.2712 48.2583 45.9771 48.4271C43.3317 49.945 40.2655 50.8125 37 50.8125C33.7345 50.8125 30.6683 49.945 28.0229 48.4271C27.7288 48.2583 27.5328 47.9592 27.4956 47.6221C27.2575 45.4645 27.7653 43.2516 28.939 41.4165Z" fill="#A685FA"/>
<path d="M27.1999 40.1927C27.1828 40.2189 27.1659 40.2452 27.149 40.2716C25.7813 42.4101 25.1554 44.957 25.3475 47.4678C24.4861 47.3369 23.6503 47.1265 22.8481 46.8439L22.6852 46.7866C22.3882 46.682 22.1806 46.4122 22.1556 46.0982L22.1419 45.9261C22.1307 45.7853 22.125 45.6432 22.125 45.5C22.125 42.6456 24.3761 40.317 27.1999 40.1927Z" fill="#A685FA"/>
<path d="M48.653 47.4677C48.8451 44.9574 48.2195 42.4111 46.8522 40.2728C46.8351 40.246 46.8179 40.2193 46.8006 40.1927C49.6241 40.3173 51.875 42.6458 51.875 45.5C51.875 45.6432 51.8693 45.7853 51.8581 45.9261L51.8444 46.0982C51.8194 46.4122 51.6118 46.682 51.3148 46.7866L51.1519 46.8439C50.3498 47.1264 49.5142 47.3368 48.653 47.4677Z" fill="#A685FA"/>
</svg>
