<svg width="24" height="24" viewBox="0 0 24 24" fill="none" xmlns="http://www.w3.org/2000/svg">
<g clip-path="url(#clip0_102_9694)">
<path d="M2.27043 15.7616H12.111V17.5697H18.2625V15.7655H20.7064C20.8646 17.9158 20.8771 19.8304 18.6716 21.2897C18.6447 21.3075 18.623 21.3318 18.5633 21.385C18.8345 21.6103 19.1018 21.8329 19.3665 22.0529C19.0092 22.3945 18.7222 22.669 18.3932 22.9842C18.1029 22.6848 17.7889 22.3373 17.4467 22.0207C17.3462 21.9275 17.1683 21.8894 17.0224 21.8802C16.784 21.8657 16.5423 21.9045 16.302 21.9052C13.1067 21.9071 9.91145 21.9065 6.71554 21.9065C6.56251 21.9065 6.39897 21.936 6.25777 21.8933C5.83151 21.7653 5.56092 21.9629 5.3074 22.2684C5.09132 22.5284 4.84502 22.7629 4.61975 23.0007C4.31566 22.6808 4.04046 22.3918 3.73572 22.0707C3.93998 21.89 4.19941 21.6602 4.49102 21.4014C4.29004 21.2576 4.13964 21.1577 3.99712 21.0474C2.92919 20.2244 2.35187 19.1329 2.27634 17.7924C2.23891 17.1284 2.26977 16.4604 2.26977 15.7616H2.27043Z" fill="#999999"/>
<path d="M2.27554 10.7871C2.27029 10.6682 2.26109 10.5612 2.26109 10.4541C2.26044 8.71366 2.25847 6.97384 2.26109 5.23336C2.26372 3.32081 3.59108 1.98622 5.50101 2.00001C6.14203 2.00461 6.80275 1.99148 7.41882 2.13663C8.5117 2.39474 9.20001 3.15267 9.53235 4.2206C9.59671 4.42814 9.68012 4.52863 9.90803 4.59037C11.194 4.93912 12.0964 6.14104 12.1128 7.48219C12.1155 7.69827 12.1128 7.91435 12.1128 8.14882H6.02578C5.73548 6.61392 6.56959 5.02976 8.31335 4.5352C8.15573 3.85017 7.48121 3.2722 6.7732 3.24725C6.23792 3.2282 5.70067 3.22623 5.16539 3.24725C4.24261 3.28337 3.50044 4.13062 3.4965 5.14666C3.48994 6.89765 3.49453 8.64929 3.49453 10.4003C3.49453 10.5198 3.49453 10.6393 3.49453 10.7865H2.27423L2.27554 10.7871Z" fill="#999999"/>
<path d="M12.0936 14.5327C11.9648 14.5327 11.8683 14.5327 11.7718 14.5327C8.64415 14.5327 5.51589 14.5334 2.38828 14.5321C1.71508 14.5321 1.23103 14.2135 1.06092 13.6697C0.804777 12.8514 1.38472 12.0632 2.26875 12.0514C3.20926 12.0389 4.14978 12.0481 5.09029 12.0481C7.29971 12.0481 9.50847 12.0481 11.7179 12.0481C11.8361 12.0481 11.9543 12.0481 12.0936 12.0481V14.5321V14.5327Z" fill="#999999"/>
<path d="M17.0227 16.3711H13.3625C13.3565 16.2555 13.3467 16.1504 13.3467 16.0453C13.3454 14.7771 13.3454 13.5082 13.3467 12.2399C13.3473 11.3224 13.8485 10.818 14.7621 10.814C15.101 10.8127 15.4399 10.8055 15.7788 10.816C16.54 10.8403 17.0372 11.3519 17.0391 12.1151C17.0431 13.4385 17.0404 14.7613 17.0391 16.0847C17.0391 16.1708 17.0299 16.2561 17.0227 16.3711Z" fill="#999999"/>
<path d="M18.2832 14.5209V12.0481C18.8782 12.0481 19.4648 12.0462 20.0506 12.0488C20.356 12.0501 20.668 12.0251 20.9668 12.0744C21.619 12.1821 22.0433 12.7161 22.0164 13.3394C21.9901 13.9508 21.5389 14.4756 20.8985 14.5091C20.0394 14.5544 19.1764 14.5203 18.2839 14.5203L18.2832 14.5209Z" fill="#999999"/>
</g>
<defs>
<clipPath id="clip0_102_9694">
<rect width="21.0171" height="21" fill="white" transform="translate(1 2)"/>
</clipPath>
</defs>
</svg>
