<svg width="74" height="74" viewBox="0 0 74 74" fill="none" xmlns="http://www.w3.org/2000/svg">
<rect x="0.5" y="0.5" width="73" height="73" rx="36.5" fill="#141414"/>
<rect x="0.5" y="0.5" width="73" height="73" rx="36.5" stroke="#703BF7"/>
<path d="M36.5751 23.9742C36.8463 23.8557 37.1546 23.8557 37.4259 23.9742C42.6942 26.276 47.6873 29.0899 52.3422 32.3527C52.6791 32.5888 52.8494 32.9982 52.7793 33.4036C52.7093 33.809 52.4116 34.1375 52.015 34.247C51.0447 34.5148 50.0828 34.8032 49.1296 35.1107C45.2606 36.3584 41.5362 37.9284 37.988 39.7891L37.9834 39.7915C37.8225 39.8759 37.662 39.9609 37.5018 40.0464C37.189 40.2136 36.8133 40.2136 36.5004 40.0464C36.3387 39.9601 36.1767 39.8743 36.0142 39.7891C34.2598 38.8691 32.4622 38.0201 30.6254 37.246V36.9291C30.6254 36.743 30.7209 36.5779 30.8687 36.4884C33.0009 35.1966 35.2003 34.0047 37.4604 32.9191C37.9893 32.665 38.2122 32.0303 37.9581 31.5013C37.704 30.9724 37.0693 30.7495 36.5403 31.0036C34.2181 32.1191 31.9582 33.3437 29.7676 34.6709C29.1253 35.06 28.6935 35.6969 28.5515 36.4103C27.3403 35.9445 26.1133 35.5105 24.8713 35.11C23.9181 34.8026 22.9562 34.5148 21.9859 34.2469C21.5893 34.1375 21.2916 33.8089 21.2216 33.4036C21.1516 32.9982 21.3219 32.5888 21.6587 32.3527C26.3137 29.0898 31.3067 26.276 36.5751 23.9742Z" fill="#A685FA"/>
<path d="M38.5033 41.9207C41.9583 40.0746 45.5883 38.514 49.3619 37.27C49.5521 39.2743 49.6735 41.2985 49.7238 43.3403C49.7346 43.7783 49.4754 44.1781 49.071 44.3469C45.0319 46.0333 41.19 48.0982 37.5896 50.4975C37.2328 50.7353 36.768 50.7353 36.4112 50.4975C32.8108 48.0982 28.9689 46.0333 24.9298 44.3469C24.5254 44.1781 24.2662 43.7783 24.277 43.3403C24.3273 41.2984 24.4487 39.274 24.6389 37.2695C25.9437 37.6996 27.2312 38.1676 28.5004 38.6721V40.4718C27.8652 40.8392 27.4379 41.5259 27.4379 42.3125C27.4379 43.0142 27.778 43.6365 28.3023 44.0234C28.1755 44.5627 27.9879 45.0903 27.7393 45.5956C28.3806 45.8983 29.0164 46.2107 29.6466 46.5327C30.0055 45.8027 30.2657 45.0366 30.4272 44.2543C31.1701 43.9232 31.6879 43.1783 31.6879 42.3125C31.6879 41.5259 31.2605 40.8392 30.6254 40.4718V39.5584C32.2848 40.2834 33.9104 41.0719 35.499 41.9207C36.4376 42.4222 37.5646 42.4222 38.5033 41.9207Z" fill="#A685FA"/>
<path d="M26.3218 47.5716C26.9156 46.9778 27.3883 46.309 27.7393 45.5956C28.3806 45.8983 29.0164 46.2107 29.6466 46.5327C29.1953 47.4505 28.5877 48.3109 27.8245 49.0742C27.4095 49.4891 26.7368 49.4891 26.3218 49.0742C25.9069 48.6593 25.9069 47.9865 26.3218 47.5716Z" fill="#A685FA"/>
</svg>
