<svg width="82" height="82" viewBox="0 0 82 82" fill="none" xmlns="http://www.w3.org/2000/svg">
<rect x="0.5" y="0.5" width="81" height="81" rx="40.5" stroke="url(#paint0_linear_104_11473)"/>
<rect x="0.5" y="0.5" width="81" height="81" rx="40.5" stroke="url(#paint1_linear_104_11473)"/>
<rect x="10.5" y="10.5" width="61" height="61" rx="30.5" stroke="url(#paint2_linear_104_11473)"/>
<rect x="10.5" y="10.5" width="61" height="61" rx="30.5" stroke="url(#paint3_linear_104_11473)"/>
<path d="M53.75 33.0313C53.75 36.8455 48.0416 39.9375 41 39.9375C33.9584 39.9375 28.25 36.8455 28.25 33.0313C28.25 29.217 33.9584 26.125 41 26.125C48.0416 26.125 53.75 29.217 53.75 33.0313Z" fill="#A685FA"/>
<path d="M41 42.0625C44.804 42.0625 48.3532 41.2319 51.0277 39.7832C52.0052 39.2537 52.9351 38.5978 53.7142 37.822C53.7379 37.9943 53.75 38.1682 53.75 38.3438C53.75 42.158 48.0416 45.25 41 45.25C33.9584 45.25 28.25 42.158 28.25 38.3438C28.25 38.1682 28.2621 37.9943 28.2858 37.822C29.0649 38.5978 29.9948 39.2537 30.9723 39.7832C33.6468 41.2319 37.196 42.0625 41 42.0625Z" fill="#A685FA"/>
<path d="M41 47.375C44.804 47.375 48.3532 46.5444 51.0277 45.0957C52.0052 44.5662 52.9351 43.9103 53.7142 43.1345C53.7379 43.3068 53.75 43.4807 53.75 43.6562C53.75 47.4705 48.0416 50.5625 41 50.5625C33.9584 50.5625 28.25 47.4705 28.25 43.6562C28.25 43.4807 28.2621 43.3068 28.2858 43.1345C29.0649 43.9103 29.9948 44.5662 30.9723 45.0957C33.6468 46.5444 37.196 47.375 41 47.375Z" fill="#A685FA"/>
<path d="M41 52.6875C44.804 52.6875 48.3532 51.8569 51.0277 50.4082C52.0052 49.8787 52.9351 49.2228 53.7142 48.447C53.7379 48.6193 53.75 48.7932 53.75 48.9687C53.75 52.783 48.0416 55.875 41 55.875C33.9584 55.875 28.25 52.783 28.25 48.9687C28.25 48.7932 28.2621 48.6193 28.2858 48.447C29.0649 49.2228 29.9948 49.8787 30.9723 50.4082C33.6468 51.8569 37.196 52.6875 41 52.6875Z" fill="#A685FA"/>
<defs>
<linearGradient id="paint0_linear_104_11473" x1="6.75" y1="86.5" x2="85.75" y2="-5.5" gradientUnits="userSpaceOnUse">
<stop stop-color="#A685FA"/>
<stop offset="0.323723" stop-color="#A685FA" stop-opacity="0"/>
</linearGradient>
<linearGradient id="paint1_linear_104_11473" x1="81.75" y1="-10.5" x2="6.75" y2="82" gradientUnits="userSpaceOnUse">
<stop stop-color="#A685FA"/>
<stop offset="0.576615" stop-color="#A685FA" stop-opacity="0"/>
</linearGradient>
<linearGradient id="paint2_linear_104_11473" x1="3.25" y1="13.5" x2="71.75" y2="72" gradientUnits="userSpaceOnUse">
<stop stop-color="#A685FA"/>
<stop offset="0.323723" stop-color="#A685FA" stop-opacity="0"/>
</linearGradient>
<linearGradient id="paint3_linear_104_11473" x1="84.25" y1="86" x2="12.25" y2="35" gradientUnits="userSpaceOnUse">
<stop stop-color="#A685FA"/>
<stop offset="0.576615" stop-color="#A685FA" stop-opacity="0"/>
</linearGradient>
</defs>
</svg>
