<svg width="82" height="82" viewBox="0 0 82 82" fill="none" xmlns="http://www.w3.org/2000/svg">
<rect x="0.5" y="0.5" width="81" height="81" rx="40.5" stroke="url(#paint0_linear_104_11410)"/>
<rect x="0.5" y="0.5" width="81" height="81" rx="40.5" stroke="url(#paint1_linear_104_11410)"/>
<rect x="10.5" y="10.5" width="61" height="61" rx="30.5" stroke="url(#paint2_linear_104_11410)"/>
<rect x="10.5" y="10.5" width="61" height="61" rx="30.5" stroke="url(#paint3_linear_104_11410)"/>
<path d="M50.0312 27.1875C48.5642 27.1875 47.375 28.3767 47.375 29.8438V52.1562C47.375 53.6233 48.5642 54.8125 50.0312 54.8125H51.0938C52.5608 54.8125 53.75 53.6233 53.75 52.1562V29.8438C53.75 28.3767 52.5608 27.1875 51.0938 27.1875H50.0312Z" fill="#A685FA"/>
<path d="M37.8125 36.2188C37.8125 34.7517 39.0017 33.5625 40.4688 33.5625H41.5312C42.9983 33.5625 44.1875 34.7517 44.1875 36.2188V52.1562C44.1875 53.6233 42.9983 54.8125 41.5312 54.8125H40.4688C39.0017 54.8125 37.8125 53.6233 37.8125 52.1562V36.2188Z" fill="#A685FA"/>
<path d="M28.25 42.5938C28.25 41.1267 29.4392 39.9375 30.9062 39.9375H31.9688C33.4358 39.9375 34.625 41.1267 34.625 42.5938V52.1562C34.625 53.6233 33.4358 54.8125 31.9688 54.8125H30.9062C29.4392 54.8125 28.25 53.6233 28.25 52.1562V42.5938Z" fill="#A685FA"/>
<defs>
<linearGradient id="paint0_linear_104_11410" x1="6.75" y1="86.5" x2="85.75" y2="-5.5" gradientUnits="userSpaceOnUse">
<stop stop-color="#A685FA"/>
<stop offset="0.323723" stop-color="#A685FA" stop-opacity="0"/>
</linearGradient>
<linearGradient id="paint1_linear_104_11410" x1="81.75" y1="-10.5" x2="6.75" y2="82" gradientUnits="userSpaceOnUse">
<stop stop-color="#A685FA"/>
<stop offset="0.576615" stop-color="#A685FA" stop-opacity="0"/>
</linearGradient>
<linearGradient id="paint2_linear_104_11410" x1="3.25" y1="13.5" x2="71.75" y2="72" gradientUnits="userSpaceOnUse">
<stop stop-color="#A685FA"/>
<stop offset="0.323723" stop-color="#A685FA" stop-opacity="0"/>
</linearGradient>
<linearGradient id="paint3_linear_104_11410" x1="84.25" y1="86" x2="12.25" y2="35" gradientUnits="userSpaceOnUse">
<stop stop-color="#A685FA"/>
<stop offset="0.576615" stop-color="#A685FA" stop-opacity="0"/>
</linearGradient>
</defs>
</svg>
