<svg width="74" height="74" viewBox="0 0 74 74" fill="none" xmlns="http://www.w3.org/2000/svg">
<rect x="0.5" y="0.5" width="73" height="73" rx="36.5" fill="#141414"/>
<rect x="0.5" y="0.5" width="73" height="73" rx="36.5" stroke="#703BF7"/>
<path fill-rule="evenodd" clip-rule="evenodd" d="M35.2835 24.5485C35.9187 23.0214 38.082 23.0214 38.7171 24.5485L41.6666 31.6399L49.3224 32.2537C50.971 32.3858 51.6395 34.4433 50.3835 35.5192L44.5506 40.5157L46.3326 47.9865C46.7164 49.5953 44.9662 50.8668 43.5548 50.0047L37.0003 46.0013L30.4459 50.0047C29.0345 50.8668 27.2843 49.5953 27.6681 47.9865L29.4501 40.5157L23.6172 35.5192C22.3611 34.4433 23.0296 32.3858 24.6783 32.2537L32.3341 31.6399L35.2835 24.5485Z" fill="#A685FA"/>
</svg>
